<?xml version="1.0" encoding="UTF-8"?>
<!DOCTYPE svg PUBLIC "-//W3C//DTD SVG 1.1//EN" "http://www.w3.org/Graphics/SVG/1.1/DTD/svg11.dtd">
<svg xmlns="http://www.w3.org/2000/svg" version="1.1" width="300px" height="300px" style="shape-rendering:geometricPrecision; text-rendering:geometricPrecision; image-rendering:optimizeQuality; fill-rule:evenodd; clip-rule:evenodd" xmlns:xlink="http://www.w3.org/1999/xlink">
<g><path style="opacity:1" fill="#fefefe" d="M -0.5,-0.5 C 99.5,-0.5 199.5,-0.5 299.5,-0.5C 299.5,99.5 299.5,199.5 299.5,299.5C 199.5,299.5 99.5,299.5 -0.5,299.5C -0.5,199.5 -0.5,99.5 -0.5,-0.5 Z"/></g>
<g><path style="opacity:1" fill="#af7751" d="M 143.5,58.5 C 147.046,59.2726 150.546,59.2726 154,58.5C 156,59.1667 158,59.8333 160,60.5C 163.938,60.5867 167.771,60.2534 171.5,59.5C 174.472,61.3056 177.305,63.3056 180,65.5C 181.587,64.273 182.921,64.6063 184,66.5C 186.503,65.7625 188.337,66.7625 189.5,69.5C 189.5,69.8333 189.5,70.1667 189.5,70.5C 189.5,71.1667 189.5,71.8333 189.5,72.5C 181.884,68.0977 173.884,64.5977 165.5,62C 161.179,61.501 156.846,61.3343 152.5,61.5C 148.018,60.6745 143.351,60.1745 138.5,60C 140.382,59.8019 142.048,59.3019 143.5,58.5 Z"/></g>
<g><path style="opacity:1" fill="#fdfdfc" d="M 152.5,61.5 C 156.846,61.3343 161.179,61.501 165.5,62C 173.884,64.5977 181.884,68.0977 189.5,72.5C 195.469,77.6364 200.969,83.303 206,89.5C 211.19,97.8797 215.857,106.546 220,115.5C 220.748,120.481 221.248,125.481 221.5,130.5C 219.5,130.5 217.5,130.5 215.5,130.5C 213.236,129.781 210.903,129.448 208.5,129.5C 203.47,127.05 198.136,126.05 192.5,126.5C 189.5,126.5 186.5,126.5 183.5,126.5C 166.476,123.772 149.143,122.772 131.5,123.5C 119.022,123.214 106.688,123.88 94.5,125.5C 94.1667,125.5 93.8333,125.5 93.5,125.5C 91.1667,125.5 88.8333,125.5 86.5,125.5C 86.5,122.833 86.5,120.167 86.5,117.5C 88.6288,109.921 91.2955,102.588 94.5,95.5C 97.085,91.6208 99.585,87.6208 102,83.5C 105.184,81.4564 107.684,78.7897 109.5,75.5C 121.578,64.5506 135.911,59.8839 152.5,61.5 Z"/></g>
<g><path style="opacity:1" fill="#e3bd90" d="M 143.5,58.5 C 142.048,59.3019 140.382,59.8019 138.5,60C 143.351,60.1745 148.018,60.6745 152.5,61.5C 135.911,59.8839 121.578,64.5506 109.5,75.5C 106.961,74.0932 107.294,72.9265 110.5,72C 109.833,71.6667 109.167,71.3333 108.5,71C 119.066,63.7557 130.733,59.589 143.5,58.5 Z"/></g>
<g><path style="opacity:1" fill="#ebb682" d="M 160.5,54.5 C 169.798,55.908 178.798,58.408 187.5,62C 191.08,64.2774 194.414,66.7774 197.5,69.5C 195.606,71.6323 194.106,70.9657 193,67.5C 191.887,68.305 190.721,68.9717 189.5,69.5C 188.337,66.7625 186.503,65.7625 184,66.5C 182.921,64.6063 181.587,64.273 180,65.5C 177.305,63.3056 174.472,61.3056 171.5,59.5C 167.771,60.2534 163.938,60.5867 160,60.5C 158,59.8333 156,59.1667 154,58.5C 150.546,59.2726 147.046,59.2726 143.5,58.5C 144.694,57.2227 146.36,56.5561 148.5,56.5C 150.865,56.6363 153.198,56.9697 155.5,57.5C 157.869,57.4047 159.536,56.4047 160.5,54.5 Z"/></g>
<g><path style="opacity:1" fill="#d48b57" d="M 160.5,54.5 C 159.536,56.4047 157.869,57.4047 155.5,57.5C 153.198,56.9697 150.865,56.6363 148.5,56.5C 146.36,56.5561 144.694,57.2227 143.5,58.5C 130.733,59.589 119.066,63.7557 108.5,71C 109.167,71.3333 109.833,71.6667 110.5,72C 107.294,72.9265 106.961,74.0932 109.5,75.5C 106.484,76.3431 103.817,77.8431 101.5,80C 101.833,80.3333 102.167,80.6667 102.5,81C 98.4404,85.1274 95.7737,89.9607 94.5,95.5C 90.415,98.746 88.2483,103.079 88,108.5C 85.7336,111.313 83.9003,114.313 82.5,117.5C 81.8333,117.5 81.1667,117.5 80.5,117.5C 79.5,117.167 78.8333,116.5 78.5,115.5C 83.1048,114.602 84.9382,111.935 84,107.5C 85.6965,106.636 86.8632,105.303 87.5,103.5C 86.8333,103.167 86.1667,102.833 85.5,102.5C 87.1667,100.5 88.8333,98.5 90.5,96.5C 90.3333,96.1667 90.1667,95.8333 90,95.5C 89,96.5 88,97.5 87,98.5C 86.3333,97.8333 86.3333,97.1667 87,96.5C 90.1667,93.3333 93.3333,90.1667 96.5,87C 95.8333,86.6667 95.1667,86.3333 94.5,86C 95.5,85 96.5,84 97.5,83C 97,82.8333 96.5,82.6667 96,82.5C 94.6136,83.7286 93.1136,84.7286 91.5,85.5C 100.17,70.6792 112.837,60.8458 129.5,56C 139.8,54.819 150.133,54.319 160.5,54.5 Z"/></g>
<g><path style="opacity:1" fill="#da9965" d="M 197.5,69.5 C 199.833,71.1667 201.833,73.1667 203.5,75.5C 204.167,77.5 204.833,79.5 205.5,81.5C 204.874,82.5289 204.041,83.5289 203,84.5C 201.473,82.779 200.473,80.779 200,78.5C 199.333,77.1667 198.667,77.1667 198,78.5C 196.748,76.9991 195.748,75.3325 195,73.5C 194.667,74.1667 194.333,74.8333 194,75.5C 192.951,73.3825 191.451,71.7158 189.5,70.5C 189.5,70.1667 189.5,69.8333 189.5,69.5C 190.721,68.9717 191.887,68.305 193,67.5C 194.106,70.9657 195.606,71.6323 197.5,69.5 Z"/></g>
<g><path style="opacity:1" fill="#f2ce9d" d="M 203.5,75.5 C 207.845,79.847 211.845,84.5137 215.5,89.5C 214.883,89.6107 214.383,89.944 214,90.5C 212.02,88.1013 209.853,86.1013 207.5,84.5C 207.068,83.2905 206.401,82.2905 205.5,81.5C 204.833,79.5 204.167,77.5 203.5,75.5 Z"/></g>
<g><path style="opacity:1" fill="#ecbf89" d="M 109.5,75.5 C 107.684,78.7897 105.184,81.4564 102,83.5C 99.585,87.6208 97.085,91.6208 94.5,95.5C 95.7737,89.9607 98.4404,85.1274 102.5,81C 102.167,80.6667 101.833,80.3333 101.5,80C 103.817,77.8431 106.484,76.3431 109.5,75.5 Z"/></g>
<g><path style="opacity:1" fill="#b9703d" d="M 78.5,115.5 C 77.8333,115.5 77.5,115.167 77.5,114.5C 81.1299,104.257 85.7965,94.5901 91.5,85.5C 93.1136,84.7286 94.6136,83.7286 96,82.5C 96.5,82.6667 97,82.8333 97.5,83C 96.5,84 95.5,85 94.5,86C 95.1667,86.3333 95.8333,86.6667 96.5,87C 93.3333,90.1667 90.1667,93.3333 87,96.5C 86.3333,97.1667 86.3333,97.8333 87,98.5C 88,97.5 89,96.5 90,95.5C 90.1667,95.8333 90.3333,96.1667 90.5,96.5C 88.8333,98.5 87.1667,100.5 85.5,102.5C 86.1667,102.833 86.8333,103.167 87.5,103.5C 86.8632,105.303 85.6965,106.636 84,107.5C 84.9382,111.935 83.1048,114.602 78.5,115.5 Z"/></g>
<g><path style="opacity:1" fill="#f6d29f" d="M 216.5,92.5 C 222.529,99.898 226.863,108.231 229.5,117.5C 228.265,117.279 227.265,116.612 226.5,115.5C 224.398,108.628 221.231,102.295 217,96.5C 216.51,95.2068 216.343,93.8734 216.5,92.5 Z"/></g>
<g><path style="opacity:1" fill="#985e3a" d="M 189.5,70.5 C 191.451,71.7158 192.951,73.3825 194,75.5C 194.333,74.8333 194.667,74.1667 195,73.5C 195.748,75.3325 196.748,76.9991 198,78.5C 198.667,77.1667 199.333,77.1667 200,78.5C 200.473,80.779 201.473,82.779 203,84.5C 204.041,83.5289 204.874,82.5289 205.5,81.5C 206.401,82.2905 207.068,83.2905 207.5,84.5C 208.757,87.096 209.924,89.7627 211,92.5C 212.016,91.3659 212.683,91.6992 213,93.5C 213.413,96.2321 214.08,98.8987 215,101.5C 216,101.5 217,101.5 218,101.5C 218.539,104.529 219.206,107.529 220,110.5C 220.333,109.833 220.667,109.167 221,108.5C 221.464,114.175 222.131,114.508 223,109.5C 223.796,113.755 223.629,117.921 222.5,122C 223.448,122.483 224.448,122.649 225.5,122.5C 226.929,125.394 227.929,128.227 228.5,131C 227.692,132.706 226.359,133.539 224.5,133.5C 224.5,135.167 224.5,136.833 224.5,138.5C 223.677,135.023 223.177,131.356 223,127.5C 222.768,128.737 222.268,129.737 221.5,130.5C 221.248,125.481 220.748,120.481 220,115.5C 215.857,106.546 211.19,97.8797 206,89.5C 200.969,83.303 195.469,77.6364 189.5,72.5C 189.5,71.8333 189.5,71.1667 189.5,70.5 Z"/></g>
<g><path style="opacity:1" fill="#efbd89" d="M 94.5,95.5 C 91.2955,102.588 88.6288,109.921 86.5,117.5C 85.0387,118.686 83.7054,118.686 82.5,117.5C 83.9003,114.313 85.7336,111.313 88,108.5C 88.2483,103.079 90.415,98.746 94.5,95.5 Z"/></g>
<g><path style="opacity:1" fill="#d99763" d="M 207.5,84.5 C 209.853,86.1013 212.02,88.1013 214,90.5C 214.383,89.944 214.883,89.6107 215.5,89.5C 216.11,90.391 216.443,91.391 216.5,92.5C 216.343,93.8734 216.51,95.2068 217,96.5C 221.231,102.295 224.398,108.628 226.5,115.5C 227.265,116.612 228.265,117.279 229.5,117.5C 232.319,124.444 234.986,131.444 237.5,138.5C 236.356,136.9 235.189,135.233 234,133.5C 233.193,137.449 232.693,137.449 232.5,133.5C 230.139,133.674 227.806,134.007 225.5,134.5C 225.5,136.5 225.5,138.5 225.5,140.5C 224.662,140.158 224.328,139.492 224.5,138.5C 224.5,136.833 224.5,135.167 224.5,133.5C 226.359,133.539 227.692,132.706 228.5,131C 227.929,128.227 226.929,125.394 225.5,122.5C 224.448,122.649 223.448,122.483 222.5,122C 223.629,117.921 223.796,113.755 223,109.5C 222.131,114.508 221.464,114.175 221,108.5C 220.667,109.167 220.333,109.833 220,110.5C 219.206,107.529 218.539,104.529 218,101.5C 217,101.5 216,101.5 215,101.5C 214.08,98.8987 213.413,96.2321 213,93.5C 212.683,91.6992 212.016,91.3659 211,92.5C 209.924,89.7627 208.757,87.096 207.5,84.5 Z"/></g>
<g><path style="opacity:1" fill="#bf7f53" d="M 80.5,117.5 C 81.1667,117.5 81.8333,117.5 82.5,117.5C 83.7054,118.686 85.0387,118.686 86.5,117.5C 86.5,120.167 86.5,122.833 86.5,125.5C 88.8333,125.5 91.1667,125.5 93.5,125.5C 91.9242,126.283 90.5908,127.45 89.5,129C 86.5,129.333 83.5,129.667 80.5,130C 81.7375,130.232 82.7375,130.732 83.5,131.5C 81.597,131.796 79.9303,132.463 78.5,133.5C 74.6656,132.965 73.999,131.465 76.5,129C 76.6938,127.57 76.6938,126.07 76.5,124.5C 78.6159,122.6 79.9493,120.267 80.5,117.5 Z"/></g>
<g><path style="opacity:1" fill="#e6a670" d="M 131.5,123.5 C 132.609,124.29 133.942,124.79 135.5,125C 132.478,125.098 129.811,125.932 127.5,127.5C 119.883,127.301 112.216,127.967 104.5,129.5C 103.274,129.48 102.274,129.147 101.5,128.5C 103.801,127.94 106.134,127.44 108.5,127C 103.964,125.621 99.2973,125.121 94.5,125.5C 106.688,123.88 119.022,123.214 131.5,123.5 Z"/></g>
<g><path style="opacity:1" fill="#f3cb99" d="M 131.5,123.5 C 149.143,122.772 166.476,123.772 183.5,126.5C 182.262,126.81 182.262,127.31 183.5,128C 170.32,127.73 157.154,126.897 144,125.5C 140.277,125.701 136.777,126.367 133.5,127.5C 131.5,127.5 129.5,127.5 127.5,127.5C 129.811,125.932 132.478,125.098 135.5,125C 133.942,124.79 132.609,124.29 131.5,123.5 Z"/></g>
<g><path style="opacity:1" fill="#e09d6a" d="M 183.5,126.5 C 186.5,126.5 189.5,126.5 192.5,126.5C 195.023,127.384 197.69,128.218 200.5,129C 190.172,129.5 179.839,129.666 169.5,129.5C 162.83,128.7 155.997,128.033 149,127.5C 147.615,127.514 146.449,127.848 145.5,128.5C 143.833,128.5 142.167,128.5 140.5,128.5C 138.05,128.702 135.717,128.369 133.5,127.5C 136.777,126.367 140.277,125.701 144,125.5C 157.154,126.897 170.32,127.73 183.5,128C 182.262,127.31 182.262,126.81 183.5,126.5 Z"/></g>
<g><path style="opacity:1" fill="#795332" d="M 145.5,128.5 C 146.449,127.848 147.615,127.514 149,127.5C 155.997,128.033 162.83,128.7 169.5,129.5C 166.287,129.19 163.287,129.523 160.5,130.5C 157.5,130.5 154.5,130.5 151.5,130.5C 150.01,128.72 148.01,128.054 145.5,128.5 Z"/></g>
<g><path style="opacity:1" fill="#d38850" d="M 93.5,125.5 C 93.8333,125.5 94.1667,125.5 94.5,125.5C 99.2973,125.121 103.964,125.621 108.5,127C 106.134,127.44 103.801,127.94 101.5,128.5C 95.6758,128.95 90.3425,130.616 85.5,133.5C 84.1667,133.5 83.5,132.833 83.5,131.5C 82.7375,130.732 81.7375,130.232 80.5,130C 83.5,129.667 86.5,129.333 89.5,129C 90.5908,127.45 91.9242,126.283 93.5,125.5 Z"/></g>
<g><path style="opacity:1" fill="#ab663a" d="M 192.5,126.5 C 198.136,126.05 203.47,127.05 208.5,129.5C 208.737,130.791 208.404,131.791 207.5,132.5C 202.518,131.947 197.518,131.613 192.5,131.5C 191.5,131.5 190.5,131.5 189.5,131.5C 188.833,131.5 188.167,131.5 187.5,131.5C 181.34,131.018 175.34,130.351 169.5,129.5C 179.839,129.666 190.172,129.5 200.5,129C 197.69,128.218 195.023,127.384 192.5,126.5 Z"/></g>
<g><path style="opacity:1" fill="#9b7c5b" d="M 127.5,127.5 C 129.5,127.5 131.5,127.5 133.5,127.5C 135.717,128.369 138.05,128.702 140.5,128.5C 141.952,129.302 143.618,129.802 145.5,130C 143.5,130.167 141.5,130.333 139.5,130.5C 132.314,129.899 125.148,129.565 118,129.5C 110.508,130.117 103.008,130.617 95.5,131C 92.1489,132.062 88.8155,133.228 85.5,134.5C 85.5,134.167 85.5,133.833 85.5,133.5C 90.3425,130.616 95.6758,128.95 101.5,128.5C 102.274,129.147 103.274,129.48 104.5,129.5C 112.216,127.967 119.883,127.301 127.5,127.5 Z"/></g>
<g><path style="opacity:1" fill="#34150b" d="M 208.5,129.5 C 210.903,129.448 213.236,129.781 215.5,130.5C 217.834,131.124 220.167,131.957 222.5,133C 218.689,132.917 215.355,133.75 212.5,135.5C 210.435,135.047 208.768,134.047 207.5,132.5C 208.404,131.791 208.737,130.791 208.5,129.5 Z"/></g>
<g><path style="opacity:1" fill="#56301b" d="M 224.5,138.5 C 224.328,139.492 224.662,140.158 225.5,140.5C 225.5,140.833 225.5,141.167 225.5,141.5C 223.5,141.5 221.5,141.5 219.5,141.5C 219.918,140.778 220.584,140.278 221.5,140C 219.232,137.171 216.232,135.671 212.5,135.5C 215.355,133.75 218.689,132.917 222.5,133C 220.167,131.957 217.834,131.124 215.5,130.5C 217.5,130.5 219.5,130.5 221.5,130.5C 222.268,129.737 222.768,128.737 223,127.5C 223.177,131.356 223.677,135.023 224.5,138.5 Z"/></g>
<g><path style="opacity:1" fill="#f1ebd5" d="M 151.5,130.5 C 154.5,130.5 157.5,130.5 160.5,130.5C 162.429,130.231 164.095,130.731 165.5,132C 165.499,133.399 165.165,134.899 164.5,136.5C 163.675,137.386 162.675,137.719 161.5,137.5C 148.276,137.54 148.276,138.206 161.5,139.5C 165.172,140.045 164.838,140.378 160.5,140.5C 158.167,140.5 155.833,140.5 153.5,140.5C 153.083,139.876 152.416,139.543 151.5,139.5C 139.812,140.946 128.145,142.446 116.5,144C 118.723,144.566 120.723,145.4 122.5,146.5C 118.167,146.5 113.833,146.5 109.5,146.5C 109.196,145.85 108.863,145.183 108.5,144.5C 104.204,143.672 99.8711,143.172 95.5,143C 96.1667,142.667 96.8333,142.333 97.5,142C 107.742,141.364 118.075,141.364 128.5,142C 120.407,140.542 112.407,138.875 104.5,137C 108.069,136.854 111.402,136.02 114.5,134.5C 116.819,135.064 119.153,135.564 121.5,136C 115.524,136.202 115.19,137.202 120.5,139C 122.902,139.814 125.235,139.647 127.5,138.5C 126.167,137.5 126.167,136.5 127.5,135.5C 123.13,134.797 118.796,133.964 114.5,133C 119.817,133.028 125.15,133.361 130.5,134C 130.167,134.333 129.833,134.667 129.5,135C 133.529,135.303 137.529,135.803 141.5,136.5C 142.167,136.167 142.833,135.833 143.5,135.5C 140.893,134.682 138.226,134.182 135.5,134C 137.5,133.833 139.5,133.667 141.5,133.5C 147.712,135.171 154.046,135.671 160.5,135C 157.833,134.667 155.167,134.333 152.5,134C 156.028,133.911 159.362,133.244 162.5,132C 158.644,131.823 154.977,131.323 151.5,130.5 Z"/></g>
<g><path style="opacity:1" fill="#ddcfaf" d="M 140.5,128.5 C 142.167,128.5 143.833,128.5 145.5,128.5C 148.01,128.054 150.01,128.72 151.5,130.5C 154.977,131.323 158.644,131.823 162.5,132C 159.362,133.244 156.028,133.911 152.5,134C 155.167,134.333 157.833,134.667 160.5,135C 154.046,135.671 147.712,135.171 141.5,133.5C 139.5,133.667 137.5,133.833 135.5,134C 138.226,134.182 140.893,134.682 143.5,135.5C 142.833,135.833 142.167,136.167 141.5,136.5C 137.529,135.803 133.529,135.303 129.5,135C 129.833,134.667 130.167,134.333 130.5,134C 125.15,133.361 119.817,133.028 114.5,133C 118.796,133.964 123.13,134.797 127.5,135.5C 126.167,136.5 126.167,137.5 127.5,138.5C 125.235,139.647 122.902,139.814 120.5,139C 115.19,137.202 115.524,136.202 121.5,136C 119.153,135.564 116.819,135.064 114.5,134.5C 111.402,136.02 108.069,136.854 104.5,137C 112.407,138.875 120.407,140.542 128.5,142C 118.075,141.364 107.742,141.364 97.5,142C 96.8333,142.333 96.1667,142.667 95.5,143C 99.8711,143.172 104.204,143.672 108.5,144.5C 108.863,145.183 109.196,145.85 109.5,146.5C 105.534,145.838 101.534,145.505 97.5,145.5C 94.4233,144.144 91.0899,143.311 87.5,143C 86.5291,141.519 85.1958,140.685 83.5,140.5C 83.0254,137.918 83.6921,135.918 85.5,134.5C 88.8155,133.228 92.1489,132.062 95.5,131C 103.008,130.617 110.508,130.117 118,129.5C 125.148,129.565 132.314,129.899 139.5,130.5C 141.5,130.333 143.5,130.167 145.5,130C 143.618,129.802 141.952,129.302 140.5,128.5 Z"/></g>
<g><path style="opacity:1" fill="#b6a686" d="M 199.5,134.5 C 201.713,134.848 203.713,135.681 205.5,137C 205.034,138.299 205.034,139.799 205.5,141.5C 202.704,140.624 200.037,139.457 197.5,138C 198.634,136.984 198.301,136.317 196.5,136C 197.737,135.768 198.737,135.268 199.5,134.5 Z"/></g>
<g><path style="opacity:1" fill="#af6332" d="M 237.5,138.5 C 238.455,140.746 239.122,143.079 239.5,145.5C 236.338,147.132 233.338,148.466 230.5,149.5C 230.167,148.833 229.833,148.167 229.5,147.5C 225.987,149.131 222.987,148.464 220.5,145.5C 221.533,144.548 222.7,144.548 224,145.5C 225.897,145.104 227.397,144.104 228.5,142.5C 230.286,144.967 231.952,144.8 233.5,142C 233.167,141.5 232.833,141 232.5,140.5C 230.253,141.374 227.92,141.708 225.5,141.5C 225.5,141.167 225.5,140.833 225.5,140.5C 225.5,138.5 225.5,136.5 225.5,134.5C 227.806,134.007 230.139,133.674 232.5,133.5C 232.693,137.449 233.193,137.449 234,133.5C 235.189,135.233 236.356,136.9 237.5,138.5 Z"/></g>
<g><path style="opacity:1" fill="#bea58e" d="M 161.5,137.5 C 161.5,138.167 161.5,138.833 161.5,139.5C 148.276,138.206 148.276,137.54 161.5,137.5 Z"/></g>
<g><path style="opacity:1" fill="#e8ddc1" d="M 160.5,130.5 C 163.287,129.523 166.287,129.19 169.5,129.5C 175.34,130.351 181.34,131.018 187.5,131.5C 180.653,132.422 173.653,132.589 166.5,132C 174.767,132.727 182.767,134.393 190.5,137C 182.044,137.367 181.711,138.2 189.5,139.5C 190.833,139.333 192.167,139.167 193.5,139C 191.122,138.026 191.456,137.359 194.5,137C 191.899,136.08 189.232,135.413 186.5,135C 188.5,134.667 190.5,134.333 192.5,134C 191.058,133.623 190.058,132.79 189.5,131.5C 190.5,131.5 191.5,131.5 192.5,131.5C 194.969,132.317 197.635,132.817 200.5,133C 199.944,133.383 199.611,133.883 199.5,134.5C 198.737,135.268 197.737,135.768 196.5,136C 198.301,136.317 198.634,136.984 197.5,138C 200.037,139.457 202.704,140.624 205.5,141.5C 205.265,142.097 204.765,142.43 204,142.5C 201.842,141.549 199.675,141.049 197.5,141C 199.233,142.189 200.9,143.356 202.5,144.5C 196.874,146.138 191.374,145.805 186,143.5C 185.426,144.354 184.759,145.354 184,146.5C 182.234,145.767 180.401,145.433 178.5,145.5C 174.541,144.45 170.541,143.95 166.5,144C 167.563,145.188 168.897,145.688 170.5,145.5C 168.052,146.473 165.385,146.806 162.5,146.5C 161.833,146.5 161.167,146.5 160.5,146.5C 160.389,145.883 160.056,145.383 159.5,145C 156.824,144.26 154.158,143.927 151.5,144C 152.328,144.915 153.328,145.581 154.5,146C 149.316,146.174 144.316,146.674 139.5,147.5C 133.811,147.468 128.145,147.134 122.5,146.5C 120.723,145.4 118.723,144.566 116.5,144C 128.145,142.446 139.812,140.946 151.5,139.5C 152.416,139.543 153.083,139.876 153.5,140.5C 152.957,140.56 152.624,140.893 152.5,141.5C 153.833,141.833 155.167,142.167 156.5,142.5C 158.333,142.415 159.666,141.748 160.5,140.5C 164.838,140.378 165.172,140.045 161.5,139.5C 161.5,138.833 161.5,138.167 161.5,137.5C 162.675,137.719 163.675,137.386 164.5,136.5C 165.165,134.899 165.499,133.399 165.5,132C 164.095,130.731 162.429,130.231 160.5,130.5 Z"/></g>
<g><path style="opacity:1" fill="#bca88b" d="M 166.5,136.5 C 169.879,136.888 173.212,137.555 176.5,138.5C 174.577,139.308 172.577,139.808 170.5,140C 172.577,140.192 174.577,140.692 176.5,141.5C 175.833,141.833 175.167,142.167 174.5,142.5C 171.318,142.087 168.318,141.254 165.5,140C 166.833,139.667 168.167,139.333 169.5,139C 167.881,138.764 166.881,137.931 166.5,136.5 Z"/></g>
<g><path style="opacity:1" fill="#bbab8c" d="M 187.5,131.5 C 188.167,131.5 188.833,131.5 189.5,131.5C 190.058,132.79 191.058,133.623 192.5,134C 190.5,134.333 188.5,134.667 186.5,135C 189.232,135.413 191.899,136.08 194.5,137C 191.456,137.359 191.122,138.026 193.5,139C 192.167,139.167 190.833,139.333 189.5,139.5C 181.711,138.2 182.044,137.367 190.5,137C 182.767,134.393 174.767,132.727 166.5,132C 173.653,132.589 180.653,132.422 187.5,131.5 Z"/></g>
<g><path style="opacity:1" fill="#967958" d="M 166.5,133.5 C 169.487,133.998 172.487,134.498 175.5,135C 174,135.167 172.5,135.333 171,135.5C 169.014,135.431 167.514,134.765 166.5,133.5 Z"/></g>
<g><path style="opacity:1" fill="#b39779" d="M 153.5,140.5 C 155.833,140.5 158.167,140.5 160.5,140.5C 159.666,141.748 158.333,142.415 156.5,142.5C 155.167,142.167 153.833,141.833 152.5,141.5C 152.624,140.893 152.957,140.56 153.5,140.5 Z"/></g>
<g><path style="opacity:1" fill="#543f30" d="M 192.5,131.5 C 197.518,131.613 202.518,131.947 207.5,132.5C 208.768,134.047 210.435,135.047 212.5,135.5C 216.232,135.671 219.232,137.171 221.5,140C 220.584,140.278 219.918,140.778 219.5,141.5C 217.786,142.738 215.786,143.405 213.5,143.5C 211.167,143.5 208.833,143.5 206.5,143.5C 206.672,142.508 206.338,141.842 205.5,141.5C 205.034,139.799 205.034,138.299 205.5,137C 203.713,135.681 201.713,134.848 199.5,134.5C 199.611,133.883 199.944,133.383 200.5,133C 197.635,132.817 194.969,132.317 192.5,131.5 Z"/></g>
<g><path style="opacity:1" fill="#b76d3c" d="M 83.5,131.5 C 83.5,132.833 84.1667,133.5 85.5,133.5C 85.5,133.833 85.5,134.167 85.5,134.5C 83.6921,135.918 83.0254,137.918 83.5,140.5C 82.7611,140.369 82.0944,140.536 81.5,141C 82.4231,143.041 82.7564,145.208 82.5,147.5C 78.8105,147.638 76.9772,145.972 77,142.5C 77.6689,145.028 78.5022,145.028 79.5,142.5C 78.9598,141.252 78.2931,140.085 77.5,139C 80.6638,137.431 80.9972,135.598 78.5,133.5C 79.9303,132.463 81.597,131.796 83.5,131.5 Z"/></g>
<g><path style="opacity:1" fill="#a25f36" d="M 77.5,114.5 C 77.5,115.167 77.8333,115.5 78.5,115.5C 78.8333,116.5 79.5,117.167 80.5,117.5C 79.9493,120.267 78.6159,122.6 76.5,124.5C 76.6938,126.07 76.6938,127.57 76.5,129C 73.999,131.465 74.6656,132.965 78.5,133.5C 80.9972,135.598 80.6638,137.431 77.5,139C 78.2931,140.085 78.9598,141.252 79.5,142.5C 78.5022,145.028 77.6689,145.028 77,142.5C 76.9772,145.972 78.8105,147.638 82.5,147.5C 82.7564,145.208 82.4231,143.041 81.5,141C 82.0944,140.536 82.7611,140.369 83.5,140.5C 85.1958,140.685 86.5291,141.519 87.5,143C 91.0899,143.311 94.4233,144.144 97.5,145.5C 95.7825,149.836 97.4491,152.002 102.5,152C 101.167,152.333 99.8333,152.667 98.5,153C 102.888,153.577 107.221,153.244 111.5,152C 109.974,150.113 107.974,149.113 105.5,149C 107.345,147.872 109.345,147.372 111.5,147.5C 111.297,149.39 111.963,150.89 113.5,152C 113.167,152.333 112.833,152.667 112.5,153C 117.508,153.869 117.175,154.536 111.5,155C 115.186,155.559 118.853,156.226 122.5,157C 117.845,157.499 113.179,157.666 108.5,157.5C 103.401,157.825 98.4012,157.325 93.5,156C 94.8333,155.667 96.1667,155.333 97.5,155C 94.1832,154.502 90.8499,154.335 87.5,154.5C 88.3984,153.842 89.3984,153.176 90.5,152.5C 89.9747,151.808 89.3081,151.308 88.5,151C 84.5138,150.501 80.5138,150.334 76.5,150.5C 76.5,150.167 76.5,149.833 76.5,149.5C 80.5138,149.666 84.5138,149.499 88.5,149C 84.8333,148.667 81.1667,148.333 77.5,148C 75.9544,146.56 75.121,144.727 75,142.5C 73.7299,144.836 72.2299,144.836 70.5,142.5C 70.8333,141.833 71.1667,141.167 71.5,140.5C 69.9547,139.548 68.288,139.215 66.5,139.5C 69.9795,131.053 73.6462,122.72 77.5,114.5 Z"/></g>
<g><path style="opacity:1" fill="#917559" d="M 205.5,141.5 C 206.338,141.842 206.672,142.508 206.5,143.5C 205.432,144.434 204.099,144.768 202.5,144.5C 200.9,143.356 199.233,142.189 197.5,141C 199.675,141.049 201.842,141.549 204,142.5C 204.765,142.43 205.265,142.097 205.5,141.5 Z"/></g>
<g><path style="opacity:1" fill="#e8c2a0" d="M 237.5,138.5 C 240.34,140.715 241.007,143.382 239.5,146.5C 239.5,146.167 239.5,145.833 239.5,145.5C 239.122,143.079 238.455,140.746 237.5,138.5 Z"/></g>
<g><path style="opacity:1" fill="#754325" d="M 66.5,139.5 C 68.288,139.215 69.9547,139.548 71.5,140.5C 71.1667,141.167 70.8333,141.833 70.5,142.5C 72.2299,144.836 73.7299,144.836 75,142.5C 75.121,144.727 75.9544,146.56 77.5,148C 81.1667,148.333 84.8333,148.667 88.5,149C 84.5138,149.499 80.5138,149.666 76.5,149.5C 75.234,148.91 73.9007,148.41 72.5,148C 73.1667,147.667 73.8333,147.333 74.5,147C 72.4817,146.495 70.4817,145.995 68.5,145.5C 66.9261,143.898 66.2594,141.898 66.5,139.5 Z"/></g>
<g><path style="opacity:1" fill="#e3ae7d" d="M 202.5,144.5 C 204.099,144.768 205.432,144.434 206.5,143.5C 208.833,143.5 211.167,143.5 213.5,143.5C 213.389,144.117 213.056,144.617 212.5,145C 207.904,146.055 203.571,146.889 199.5,147.5C 198.448,147.351 197.448,147.517 196.5,148C 197.696,148.654 197.696,149.154 196.5,149.5C 195.614,148.675 195.281,147.675 195.5,146.5C 194.448,146.351 193.448,146.517 192.5,147C 190.15,148.667 188.483,150.333 187.5,152C 190.404,153.82 193.237,153.654 196,151.5C 198.734,152.362 198.901,153.195 196.5,154C 197.167,154.333 197.833,154.667 198.5,155C 196.685,155.757 195.019,156.59 193.5,157.5C 188.859,158.127 184.193,158.46 179.5,158.5C 178.048,157.698 176.382,157.198 174.5,157C 178.5,156.333 178.5,155.667 174.5,155C 176.447,154.009 178.447,153.675 180.5,154C 178.405,154.556 178.238,155.056 180,155.5C 181.5,155 183,154.5 184.5,154C 183.352,151.754 181.019,150.087 177.5,149C 178.337,147.989 178.67,146.822 178.5,145.5C 180.401,145.433 182.234,145.767 184,146.5C 184.759,145.354 185.426,144.354 186,143.5C 191.374,145.805 196.874,146.138 202.5,144.5 Z"/></g>
<g><path style="opacity:1" fill="#c47b4a" d="M 160.5,146.5 C 161.167,146.5 161.833,146.5 162.5,146.5C 162.918,147.222 163.584,147.722 164.5,148C 162.057,149.861 162.39,151.694 165.5,153.5C 169.466,152.933 169.466,153.6 165.5,155.5C 162.886,156.545 160.22,157.045 157.5,157C 158.167,156.667 158.833,156.333 159.5,156C 158.167,155.333 158.167,154.667 159.5,154C 160.5,153.667 161.5,153.333 162.5,153C 160.975,151.991 159.308,151.491 157.5,151.5C 156.665,150.057 155.332,149.057 153.5,148.5C 155.339,145.731 157.672,145.065 160.5,146.5 Z"/></g>
<g><path style="opacity:1" fill="#d18f5c" d="M 199.5,147.5 C 199.938,147.435 200.272,147.601 200.5,148C 198.205,148.984 198.539,149.817 201.5,150.5C 202.609,149.41 203.609,149.41 204.5,150.5C 202.009,151.541 202.009,152.374 204.5,153C 206.035,153.496 207.535,153.33 209,152.5C 210.011,152.892 210.511,153.559 210.5,154.5C 213.648,153.86 213.981,152.86 211.5,151.5C 213.898,150.276 216.231,150.442 218.5,152C 217.167,152.667 217.167,153.333 218.5,154C 216.402,153.016 214.402,153.349 212.5,155C 217.148,155.883 221.481,155.05 225.5,152.5C 225.833,152.667 226.167,152.833 226.5,153C 225.429,153.852 224.429,154.685 223.5,155.5C 221.694,156.024 220.028,156.691 218.5,157.5C 214.5,157.5 210.5,157.5 206.5,157.5C 202.167,157.5 197.833,157.5 193.5,157.5C 195.019,156.59 196.685,155.757 198.5,155C 197.833,154.667 197.167,154.333 196.5,154C 198.901,153.195 198.734,152.362 196,151.5C 193.237,153.654 190.404,153.82 187.5,152C 188.483,150.333 190.15,148.667 192.5,147C 193.448,146.517 194.448,146.351 195.5,146.5C 195.281,147.675 195.614,148.675 196.5,149.5C 197.696,149.154 197.696,148.654 196.5,148C 197.448,147.517 198.448,147.351 199.5,147.5 Z"/></g>
<g><path style="opacity:1" fill="#e4b486" d="M 170.5,145.5 C 171.692,146.566 171.359,147.399 169.5,148C 170.328,148.915 171.328,149.581 172.5,150C 171.552,150.483 170.552,150.649 169.5,150.5C 169.5,151.5 169.5,152.5 169.5,153.5C 170.552,153.351 171.552,153.517 172.5,154C 170.256,155.938 167.923,156.438 165.5,155.5C 169.466,153.6 169.466,152.933 165.5,153.5C 162.39,151.694 162.057,149.861 164.5,148C 163.584,147.722 162.918,147.222 162.5,146.5C 165.385,146.806 168.052,146.473 170.5,145.5 Z"/></g>
<g><path style="opacity:1" fill="#c97d46" d="M 239.5,145.5 C 239.5,145.833 239.5,146.167 239.5,146.5C 238.5,147.833 237.5,149.167 236.5,150.5C 235.833,150.5 235.5,150.833 235.5,151.5C 233.196,153.657 230.529,155.324 227.5,156.5C 226.264,155.754 224.93,155.421 223.5,155.5C 224.429,154.685 225.429,153.852 226.5,153C 226.167,152.833 225.833,152.667 225.5,152.5C 221.481,155.05 217.148,155.883 212.5,155C 214.402,153.349 216.402,153.016 218.5,154C 217.167,153.333 217.167,152.667 218.5,152C 216.231,150.442 213.898,150.276 211.5,151.5C 213.981,152.86 213.648,153.86 210.5,154.5C 210.511,153.559 210.011,152.892 209,152.5C 207.535,153.33 206.035,153.496 204.5,153C 202.009,152.374 202.009,151.541 204.5,150.5C 203.609,149.41 202.609,149.41 201.5,150.5C 198.539,149.817 198.205,148.984 200.5,148C 200.272,147.601 199.938,147.435 199.5,147.5C 203.571,146.889 207.904,146.055 212.5,145C 213.056,144.617 213.389,144.117 213.5,143.5C 215.786,143.405 217.786,142.738 219.5,141.5C 221.5,141.5 223.5,141.5 225.5,141.5C 227.92,141.708 230.253,141.374 232.5,140.5C 232.833,141 233.167,141.5 233.5,142C 231.952,144.8 230.286,144.967 228.5,142.5C 227.397,144.104 225.897,145.104 224,145.5C 222.7,144.548 221.533,144.548 220.5,145.5C 222.987,148.464 225.987,149.131 229.5,147.5C 229.833,148.167 230.167,148.833 230.5,149.5C 233.338,148.466 236.338,147.132 239.5,145.5 Z"/></g>
<g><path style="opacity:1" fill="#894d26" d="M 76.5,150.5 C 80.5138,150.334 84.5138,150.501 88.5,151C 89.3081,151.308 89.9747,151.808 90.5,152.5C 89.3984,153.176 88.3984,153.842 87.5,154.5C 83.8102,153.121 80.1436,151.788 76.5,150.5 Z"/></g>
<g><path style="opacity:1" fill="#c68253" d="M 97.5,145.5 C 101.534,145.505 105.534,145.838 109.5,146.5C 113.833,146.5 118.167,146.5 122.5,146.5C 128.145,147.134 133.811,147.468 139.5,147.5C 142.244,147.248 144.744,147.915 147,149.5C 148.465,148.67 149.965,148.504 151.5,149C 151.5,150 151.5,151 151.5,152C 149.981,151.669 148.648,151.836 147.5,152.5C 146.126,154.378 144.126,155.378 141.5,155.5C 140.833,155.333 140.167,155.167 139.5,155C 141.5,154.333 143.5,153.667 145.5,153C 141.899,152.557 138.565,151.39 135.5,149.5C 133.598,151.151 131.598,151.484 129.5,150.5C 128.707,151.355 129.04,152.189 130.5,153C 128.122,153.974 128.456,154.641 131.5,155C 130.5,155.333 129.5,155.667 128.5,156C 130.167,156.333 131.833,156.667 133.5,157C 131.389,157.845 129.389,158.678 127.5,159.5C 121.066,158.87 114.733,158.203 108.5,157.5C 113.179,157.666 117.845,157.499 122.5,157C 118.853,156.226 115.186,155.559 111.5,155C 117.175,154.536 117.508,153.869 112.5,153C 112.833,152.667 113.167,152.333 113.5,152C 111.963,150.89 111.297,149.39 111.5,147.5C 109.345,147.372 107.345,147.872 105.5,149C 107.974,149.113 109.974,150.113 111.5,152C 107.221,153.244 102.888,153.577 98.5,153C 99.8333,152.667 101.167,152.333 102.5,152C 97.4491,152.002 95.7825,149.836 97.5,145.5 Z"/></g>
<g><path style="opacity:1" fill="#e8b98a" d="M 120.5,150.5 C 123.157,150.162 125.49,150.829 127.5,152.5C 125.053,154.223 122.387,154.723 119.5,154C 119.833,153.667 120.167,153.333 120.5,153C 119.5,152.667 118.5,152.333 117.5,152C 118.737,151.768 119.737,151.268 120.5,150.5 Z"/></g>
<g><path style="opacity:1" fill="#e0b183" d="M 160.5,146.5 C 157.672,145.065 155.339,145.731 153.5,148.5C 155.332,149.057 156.665,150.057 157.5,151.5C 157.038,154.112 155.538,155.779 153,156.5C 151.995,154.938 150.162,153.604 147.5,152.5C 148.648,151.836 149.981,151.669 151.5,152C 151.5,151 151.5,150 151.5,149C 149.965,148.504 148.465,148.67 147,149.5C 144.744,147.915 142.244,147.248 139.5,147.5C 144.316,146.674 149.316,146.174 154.5,146C 153.328,145.581 152.328,144.915 151.5,144C 154.158,143.927 156.824,144.26 159.5,145C 160.056,145.383 160.389,145.883 160.5,146.5 Z"/></g>
<g><path style="opacity:1" fill="#63492d" d="M 68.5,145.5 C 70.4817,145.995 72.4817,146.495 74.5,147C 73.8333,147.333 73.1667,147.667 72.5,148C 73.9007,148.41 75.234,148.91 76.5,149.5C 76.5,149.833 76.5,150.167 76.5,150.5C 80.1436,151.788 83.8102,153.121 87.5,154.5C 90.8499,154.335 94.1832,154.502 97.5,155C 96.1667,155.333 94.8333,155.667 93.5,156C 98.4012,157.325 103.401,157.825 108.5,157.5C 114.733,158.203 121.066,158.87 127.5,159.5C 136.513,159.56 145.513,159.893 154.5,160.5C 143.152,161.325 131.818,161.658 120.5,161.5C 115.342,161.818 110.342,161.152 105.5,159.5C 104.5,159.667 103.5,159.833 102.5,160C 103.756,160.417 104.423,161.25 104.5,162.5C 104.167,162.5 103.833,162.5 103.5,162.5C 98.4753,160.291 93.142,158.958 87.5,158.5C 85.1432,158.663 82.8098,158.497 80.5,158C 81.6039,156.869 81.2705,156.035 79.5,155.5C 78.2888,156.274 78.2888,157.107 79.5,158C 76.4752,159.72 73.8086,159.22 71.5,156.5C 71.0284,153.735 71.0284,151.068 71.5,148.5C 70.2299,147.712 69.2299,146.712 68.5,145.5 Z"/></g>
<g><path style="opacity:1" fill="#d29161" d="M 178.5,145.5 C 178.67,146.822 178.337,147.989 177.5,149C 181.019,150.087 183.352,151.754 184.5,154C 183,154.5 181.5,155 180,155.5C 178.238,155.056 178.405,154.556 180.5,154C 178.447,153.675 176.447,154.009 174.5,155C 178.5,155.667 178.5,156.333 174.5,157C 176.382,157.198 178.048,157.698 179.5,158.5C 174.283,158.758 169.116,158.425 164,157.5C 160.726,158.574 157.559,159.574 154.5,160.5C 145.513,159.893 136.513,159.56 127.5,159.5C 129.389,158.678 131.389,157.845 133.5,157C 131.833,156.667 130.167,156.333 128.5,156C 129.5,155.667 130.5,155.333 131.5,155C 128.456,154.641 128.122,153.974 130.5,153C 129.04,152.189 128.707,151.355 129.5,150.5C 131.598,151.484 133.598,151.151 135.5,149.5C 138.565,151.39 141.899,152.557 145.5,153C 143.5,153.667 141.5,154.333 139.5,155C 140.167,155.167 140.833,155.333 141.5,155.5C 144.126,155.378 146.126,154.378 147.5,152.5C 150.162,153.604 151.995,154.938 153,156.5C 155.538,155.779 157.038,154.112 157.5,151.5C 159.308,151.491 160.975,151.991 162.5,153C 161.5,153.333 160.5,153.667 159.5,154C 158.167,154.667 158.167,155.333 159.5,156C 158.833,156.333 158.167,156.667 157.5,157C 160.22,157.045 162.886,156.545 165.5,155.5C 167.923,156.438 170.256,155.938 172.5,154C 171.552,153.517 170.552,153.351 169.5,153.5C 169.5,152.5 169.5,151.5 169.5,150.5C 170.552,150.649 171.552,150.483 172.5,150C 171.328,149.581 170.328,148.915 169.5,148C 171.359,147.399 171.692,146.566 170.5,145.5C 168.897,145.688 167.563,145.188 166.5,144C 170.541,143.95 174.541,144.45 178.5,145.5 Z"/></g>
<g><path style="opacity:1" fill="#714e2f" d="M 179.5,158.5 C 184.193,158.46 188.859,158.127 193.5,157.5C 197.833,157.5 202.167,157.5 206.5,157.5C 197.935,158.25 189.268,159.25 180.5,160.5C 171.842,160.407 163.175,160.407 154.5,160.5C 157.559,159.574 160.726,158.574 164,157.5C 169.116,158.425 174.283,158.758 179.5,158.5 Z"/></g>
<g><path style="opacity:1" fill="#ddc494" d="M 235.5,151.5 C 235.84,154.144 235.173,156.477 233.5,158.5C 235.658,160.026 235.325,161.526 232.5,163C 229.828,163.834 227.161,164.668 224.5,165.5C 221.86,164.665 219.193,164.498 216.5,165C 218.104,163.763 219.771,162.597 221.5,161.5C 220.5,160.833 219.5,160.167 218.5,159.5C 220.925,158.351 220.925,157.684 218.5,157.5C 220.028,156.691 221.694,156.024 223.5,155.5C 224.93,155.421 226.264,155.754 227.5,156.5C 230.529,155.324 233.196,153.657 235.5,151.5 Z"/></g>
<g><path style="opacity:1" fill="#b8a078" d="M 87.5,158.5 C 88.7898,159.935 90.4565,160.935 92.5,161.5C 91.2713,162.281 89.938,162.781 88.5,163C 90.5444,163.498 91.8777,164.665 92.5,166.5C 90.8008,166.34 89.1341,166.506 87.5,167C 89.9355,167.853 92.2688,168.853 94.5,170C 91.3248,169.947 88.6581,170.78 86.5,172.5C 83.9259,171.536 81.5925,170.203 79.5,168.5C 78.209,168.737 77.209,168.404 76.5,167.5C 77.9148,165.656 79.5815,164.989 81.5,165.5C 76.3802,162.902 76.7136,161.735 82.5,162C 78.6429,160.77 74.6429,159.936 70.5,159.5C 70.2627,158.209 70.596,157.209 71.5,156.5C 73.8086,159.22 76.4752,159.72 79.5,158C 78.2888,157.107 78.2888,156.274 79.5,155.5C 81.2705,156.035 81.6039,156.869 80.5,158C 82.8098,158.497 85.1432,158.663 87.5,158.5 Z"/></g>
<g><path style="opacity:1" fill="#ceba92" d="M 120.5,161.5 C 122.042,162.163 123.709,162.83 125.5,163.5C 124.5,163.833 123.5,164.167 122.5,164.5C 116.603,162.934 110.603,162.267 104.5,162.5C 104.423,161.25 103.756,160.417 102.5,160C 103.5,159.833 104.5,159.667 105.5,159.5C 110.342,161.152 115.342,161.818 120.5,161.5 Z"/></g>
<g><path style="opacity:1" fill="#857257" d="M 70.5,159.5 C 74.6429,159.936 78.6429,160.77 82.5,162C 76.7136,161.735 76.3802,162.902 81.5,165.5C 79.5815,164.989 77.9148,165.656 76.5,167.5C 75.596,166.791 75.2627,165.791 75.5,164.5C 72.715,165.084 71.0483,164.084 70.5,161.5C 70.5,160.833 70.5,160.167 70.5,159.5 Z"/></g>
<g><path style="opacity:1" fill="#c4a884" d="M 237.5,166.5 C 238.833,168.833 238.833,171.167 237.5,173.5C 237.662,171.473 237.495,169.473 237,167.5C 235.826,169.671 233.993,170.671 231.5,170.5C 231.918,169.778 232.584,169.278 233.5,169C 231.765,168.349 230.098,168.515 228.5,169.5C 227.833,168.833 227.167,168.167 226.5,167.5C 223.3,169.17 219.967,170.003 216.5,170C 217.5,169.167 218.5,168.333 219.5,167.5C 224.904,166.853 230.071,165.519 235,163.5C 236.826,164.01 236.993,164.844 235.5,166C 236.094,166.464 236.761,166.631 237.5,166.5 Z"/></g>
<g><path style="opacity:1" fill="#ceba95" d="M 87.5,158.5 C 93.142,158.958 98.4753,160.291 103.5,162.5C 104.23,164.045 105.563,164.878 107.5,165C 112.22,165.221 116.887,165.721 121.5,166.5C 122.604,167.631 122.271,168.465 120.5,169C 122.715,169.17 124.715,169.837 126.5,171C 122.527,171.998 118.527,172.331 114.5,172C 117.167,171.333 117.167,170.667 114.5,170C 115.973,169.29 116.64,168.124 116.5,166.5C 112.116,166.174 107.783,166.508 103.5,167.5C 105.167,168.167 106.833,168.833 108.5,169.5C 103.643,170.402 99.3092,169.068 95.5,165.5C 94.5832,166.127 93.5832,166.461 92.5,166.5C 91.8777,164.665 90.5444,163.498 88.5,163C 89.938,162.781 91.2713,162.281 92.5,161.5C 90.4565,160.935 88.7898,159.935 87.5,158.5 Z"/></g>
<g><path style="opacity:1" fill="#e7dbbb" d="M 236.5,150.5 C 236.687,155.845 237.02,161.178 237.5,166.5C 236.761,166.631 236.094,166.464 235.5,166C 236.993,164.844 236.826,164.01 235,163.5C 230.071,165.519 224.904,166.853 219.5,167.5C 218.5,168.333 217.5,169.167 216.5,170C 219.967,170.003 223.3,169.17 226.5,167.5C 227.167,168.167 227.833,168.833 228.5,169.5C 230.098,168.515 231.765,168.349 233.5,169C 232.584,169.278 231.918,169.778 231.5,170.5C 228.539,171.323 225.539,171.99 222.5,172.5C 216.762,172.623 211.096,173.29 205.5,174.5C 204.508,174.672 203.842,174.338 203.5,173.5C 204.376,173.631 205.043,173.298 205.5,172.5C 203.577,171.692 201.577,171.192 199.5,171C 206.077,167.71 205.41,165.71 197.5,165C 206.444,162.501 205.944,160.667 196,159.5C 192.046,159.616 188.546,160.95 185.5,163.5C 186.167,164.5 186.833,165.5 187.5,166.5C 186.975,167.192 186.308,167.692 185.5,168C 186.833,168.333 188.167,168.667 189.5,169C 186.833,169.667 186.833,170.333 189.5,171C 186.232,172.213 182.899,172.546 179.5,172C 184.774,171.187 184.774,170.687 179.5,170.5C 174.331,171.792 169.164,171.792 164,170.5C 160.29,170.952 156.623,171.618 153,172.5C 153.058,171.02 151.891,170.187 149.5,170C 156.4,169.042 163.4,168.708 170.5,169C 175.175,168.203 179.841,167.37 184.5,166.5C 176.912,167.239 169.246,167.239 161.5,166.5C 157.894,166.61 154.394,167.277 151,168.5C 149.238,168.056 149.405,167.556 151.5,167C 150.833,166.667 150.167,166.333 149.5,166C 155.029,165.916 160.362,164.916 165.5,163C 163.833,162.833 162.167,162.667 160.5,162.5C 152.864,163.407 145.198,164.407 137.5,165.5C 140.028,166.816 140.028,167.983 137.5,169C 139.5,169.667 141.5,170.333 143.5,171C 140.719,171.522 138.385,172.689 136.5,174.5C 131.61,174.277 126.943,174.277 122.5,174.5C 121.833,174.5 121.167,174.5 120.5,174.5C 120.167,174.5 119.833,174.5 119.5,174.5C 111.5,173.929 104.667,172.596 99,170.5C 97.2382,170.944 97.4049,171.444 99.5,172C 96.1832,172.498 92.8499,172.665 89.5,172.5C 88.5,172.5 87.5,172.5 86.5,172.5C 88.6581,170.78 91.3248,169.947 94.5,170C 92.2688,168.853 89.9355,167.853 87.5,167C 89.1341,166.506 90.8008,166.34 92.5,166.5C 93.5832,166.461 94.5832,166.127 95.5,165.5C 99.3092,169.068 103.643,170.402 108.5,169.5C 106.833,168.833 105.167,168.167 103.5,167.5C 107.783,166.508 112.116,166.174 116.5,166.5C 116.64,168.124 115.973,169.29 114.5,170C 117.167,170.667 117.167,171.333 114.5,172C 118.527,172.331 122.527,171.998 126.5,171C 124.715,169.837 122.715,169.17 120.5,169C 122.271,168.465 122.604,167.631 121.5,166.5C 116.887,165.721 112.22,165.221 107.5,165C 105.563,164.878 104.23,164.045 103.5,162.5C 103.833,162.5 104.167,162.5 104.5,162.5C 110.603,162.267 116.603,162.934 122.5,164.5C 123.5,164.167 124.5,163.833 125.5,163.5C 123.709,162.83 122.042,162.163 120.5,161.5C 131.818,161.658 143.152,161.325 154.5,160.5C 163.175,160.407 171.842,160.407 180.5,160.5C 189.268,159.25 197.935,158.25 206.5,157.5C 210.5,157.5 214.5,157.5 218.5,157.5C 220.925,157.684 220.925,158.351 218.5,159.5C 219.5,160.167 220.5,160.833 221.5,161.5C 219.771,162.597 218.104,163.763 216.5,165C 219.193,164.498 221.86,164.665 224.5,165.5C 227.161,164.668 229.828,163.834 232.5,163C 235.325,161.526 235.658,160.026 233.5,158.5C 235.173,156.477 235.84,154.144 235.5,151.5C 235.5,150.833 235.833,150.5 236.5,150.5 Z"/></g>
<g><path style="opacity:1" fill="#f5f0d9" d="M 203.5,173.5 C 201.167,173.5 198.833,173.5 196.5,173.5C 189.171,173.387 181.837,173.053 174.5,172.5C 172.55,173.372 170.55,174.039 168.5,174.5C 167.833,174.5 167.167,174.5 166.5,174.5C 156.399,174.325 146.399,174.325 136.5,174.5C 138.385,172.689 140.719,171.522 143.5,171C 141.5,170.333 139.5,169.667 137.5,169C 140.028,167.983 140.028,166.816 137.5,165.5C 145.198,164.407 152.864,163.407 160.5,162.5C 162.167,162.667 163.833,162.833 165.5,163C 160.362,164.916 155.029,165.916 149.5,166C 150.167,166.333 150.833,166.667 151.5,167C 149.405,167.556 149.238,168.056 151,168.5C 154.394,167.277 157.894,166.61 161.5,166.5C 169.246,167.239 176.912,167.239 184.5,166.5C 179.841,167.37 175.175,168.203 170.5,169C 163.4,168.708 156.4,169.042 149.5,170C 151.891,170.187 153.058,171.02 153,172.5C 156.623,171.618 160.29,170.952 164,170.5C 169.164,171.792 174.331,171.792 179.5,170.5C 184.774,170.687 184.774,171.187 179.5,172C 182.899,172.546 186.232,172.213 189.5,171C 186.833,170.333 186.833,169.667 189.5,169C 188.167,168.667 186.833,168.333 185.5,168C 186.308,167.692 186.975,167.192 187.5,166.5C 186.833,165.5 186.167,164.5 185.5,163.5C 188.546,160.95 192.046,159.616 196,159.5C 205.944,160.667 206.444,162.501 197.5,165C 205.41,165.71 206.077,167.71 199.5,171C 201.577,171.192 203.577,171.692 205.5,172.5C 205.043,173.298 204.376,173.631 203.5,173.5 Z"/></g>
<g><path style="opacity:1" fill="#a78b73" d="M 119.5,174.5 C 117.354,174.878 115.187,175.212 113,175.5C 105.563,174.089 98.0633,173.422 90.5,173.5C 89.8333,173.5 89.5,173.167 89.5,172.5C 92.8499,172.665 96.1832,172.498 99.5,172C 97.4049,171.444 97.2382,170.944 99,170.5C 104.667,172.596 111.5,173.929 119.5,174.5 Z"/></g>
<g><path style="opacity:1" fill="#280d09" d="M 237.5,173.5 C 236.662,173.842 236.328,174.508 236.5,175.5C 233.879,177.485 230.879,178.485 227.5,178.5C 223.922,178.549 220.589,179.215 217.5,180.5C 213.833,180.5 210.167,180.5 206.5,180.5C 202.433,178.946 198.1,178.28 193.5,178.5C 194.624,177.191 196.124,176.525 198,176.5C 200.999,177.61 203.832,177.61 206.5,176.5C 212.391,176.973 217.724,175.64 222.5,172.5C 225.539,171.99 228.539,171.323 231.5,170.5C 233.993,170.671 235.826,169.671 237,167.5C 237.495,169.473 237.662,171.473 237.5,173.5 Z"/></g>
<g><path style="opacity:1" fill="#cebfa9" d="M 196.5,173.5 C 187.782,174.036 179.115,175.036 170.5,176.5C 169.167,176.5 168.5,175.833 168.5,174.5C 170.55,174.039 172.55,173.372 174.5,172.5C 181.837,173.053 189.171,173.387 196.5,173.5 Z"/></g>
<g><path style="opacity:1" fill="#34231c" d="M 70.5,161.5 C 71.0483,164.084 72.715,165.084 75.5,164.5C 75.2627,165.791 75.596,166.791 76.5,167.5C 77.209,168.404 78.209,168.737 79.5,168.5C 77.6363,170.218 75.3029,171.385 72.5,172C 73.6492,173.744 74.9825,173.911 76.5,172.5C 76.7876,173.861 77.121,175.194 77.5,176.5C 74.5918,177.159 74.2584,177.993 76.5,179C 75.6828,181.372 74.3495,181.872 72.5,180.5C 71.8333,177.167 71.1667,173.833 70.5,170.5C 69.2248,167.396 69.2248,164.396 70.5,161.5 Z"/></g>
<g><path style="opacity:1" fill="#ba967b" d="M 136.5,174.5 C 146.399,174.325 156.399,174.325 166.5,174.5C 161.71,175.725 156.71,176.392 151.5,176.5C 150.036,175.84 148.369,175.507 146.5,175.5C 143.514,175.382 140.848,176.048 138.5,177.5C 133.272,175.936 127.939,174.936 122.5,174.5C 126.943,174.277 131.61,174.277 136.5,174.5 Z"/></g>
<g><path style="opacity:1" fill="#411912" d="M 222.5,172.5 C 217.724,175.64 212.391,176.973 206.5,176.5C 206.167,175.833 205.833,175.167 205.5,174.5C 211.096,173.29 216.762,172.623 222.5,172.5 Z"/></g>
<g><path style="opacity:1" fill="#693929" d="M 196.5,173.5 C 198.833,173.5 201.167,173.5 203.5,173.5C 203.842,174.338 204.508,174.672 205.5,174.5C 205.833,175.167 206.167,175.833 206.5,176.5C 203.832,177.61 200.999,177.61 198,176.5C 196.124,176.525 194.624,177.191 193.5,178.5C 191.518,178.005 189.518,177.505 187.5,177C 188.833,176.667 190.167,176.333 191.5,176C 190.667,175.833 189.833,175.667 189,175.5C 182.938,177.779 176.772,178.112 170.5,176.5C 179.115,175.036 187.782,174.036 196.5,173.5 Z"/></g>
<g><path style="opacity:1" fill="#3f150f" d="M 90.5,173.5 C 98.0633,173.422 105.563,174.089 113,175.5C 115.187,175.212 117.354,174.878 119.5,174.5C 119.833,174.5 120.167,174.5 120.5,174.5C 120.5,175.5 120.5,176.5 120.5,177.5C 127.531,176.403 133.531,176.403 138.5,177.5C 142.968,178.873 147.301,178.539 151.5,176.5C 156.71,176.392 161.71,175.725 166.5,174.5C 167.167,174.5 167.833,174.5 168.5,174.5C 168.5,175.833 169.167,176.5 170.5,176.5C 176.772,178.112 182.938,177.779 189,175.5C 189.833,175.667 190.667,175.833 191.5,176C 190.167,176.333 188.833,176.667 187.5,177C 189.518,177.505 191.518,178.005 193.5,178.5C 193.5,178.833 193.5,179.167 193.5,179.5C 190.664,180.776 187.664,181.442 184.5,181.5C 174.833,181.5 165.167,181.5 155.5,181.5C 153.473,181.662 151.473,181.495 149.5,181C 154.53,180.552 159.53,179.886 164.5,179C 154.472,178.815 144.472,179.315 134.5,180.5C 129.831,179.277 125.164,179.277 120.5,180.5C 126.138,181.33 131.804,181.83 137.5,182C 136.944,182.383 136.611,182.883 136.5,183.5C 135.5,183.5 134.5,183.5 133.5,183.5C 130.038,182.518 126.371,182.185 122.5,182.5C 122.167,182.5 121.833,182.5 121.5,182.5C 117.802,182.448 114.135,182.114 110.5,181.5C 110.611,180.883 110.944,180.383 111.5,180C 113.5,179.667 115.5,179.333 117.5,179C 113.848,178.501 110.182,178.335 106.5,178.5C 106.5,177.5 106.5,176.5 106.5,175.5C 100.916,175.745 95.5826,175.078 90.5,173.5 Z"/></g>
<g><path style="opacity:1" fill="#77412f" d="M 151.5,176.5 C 147.301,178.539 142.968,178.873 138.5,177.5C 140.848,176.048 143.514,175.382 146.5,175.5C 148.369,175.507 150.036,175.84 151.5,176.5 Z"/></g>
<g><path style="opacity:1" fill="#9f664c" d="M 120.5,174.5 C 121.167,174.5 121.833,174.5 122.5,174.5C 127.939,174.936 133.272,175.936 138.5,177.5C 133.531,176.403 127.531,176.403 120.5,177.5C 120.5,176.5 120.5,175.5 120.5,174.5 Z"/></g>
<g><path style="opacity:1" fill="#b6a9a0" d="M 70.5,170.5 C 71.1667,173.833 71.8333,177.167 72.5,180.5C 72.5,182.833 72.5,185.167 72.5,187.5C 70.8827,182.084 70.216,176.417 70.5,170.5 Z"/></g>
<g><path style="opacity:1" fill="#1e0a08" d="M 79.5,168.5 C 81.5925,170.203 83.9259,171.536 86.5,172.5C 87.5,172.5 88.5,172.5 89.5,172.5C 89.5,173.167 89.8333,173.5 90.5,173.5C 95.5826,175.078 100.916,175.745 106.5,175.5C 106.5,176.5 106.5,177.5 106.5,178.5C 110.182,178.335 113.848,178.501 117.5,179C 115.5,179.333 113.5,179.667 111.5,180C 110.944,180.383 110.611,180.883 110.5,181.5C 107.167,181.5 103.833,181.5 100.5,181.5C 94.5464,180.699 88.5464,179.865 82.5,179C 81.6753,177.312 80.6753,177.145 79.5,178.5C 78.4777,178.145 77.811,177.478 77.5,176.5C 77.121,175.194 76.7876,173.861 76.5,172.5C 74.9825,173.911 73.6492,173.744 72.5,172C 75.3029,171.385 77.6363,170.218 79.5,168.5 Z"/></g>
<g><path style="opacity:1" fill="#57301e" d="M 77.5,176.5 C 77.811,177.478 78.4777,178.145 79.5,178.5C 80.6753,177.145 81.6753,177.312 82.5,179C 88.5464,179.865 94.5464,180.699 100.5,181.5C 101.209,182.404 102.209,182.737 103.5,182.5C 103.5,183.5 103.5,184.5 103.5,185.5C 98.6323,184.124 93.6323,183.29 88.5,183C 91.5,182.667 94.5,182.333 97.5,182C 92.8474,180.969 88.5141,181.635 84.5,184C 87.5535,184.179 90.5535,184.679 93.5,185.5C 91.5159,186.706 89.5159,186.706 87.5,185.5C 86.4777,185.855 85.811,186.522 85.5,187.5C 83.7542,188.218 83.0875,189.218 83.5,190.5C 82.4096,189.273 81.0762,188.44 79.5,188C 80.624,187.751 81.624,187.251 82.5,186.5C 81.0095,185.756 79.5095,185.09 78,184.5C 75.9045,185.715 76.0712,186.549 78.5,187C 76.5406,189.316 76.5406,191.316 78.5,193C 77.6919,193.308 77.0253,193.808 76.5,194.5C 78.6948,195.769 80.8615,195.769 83,194.5C 84.1127,195.305 85.2794,195.972 86.5,196.5C 87.1667,196.5 87.5,196.833 87.5,197.5C 83.8979,197.678 83.8979,198.678 87.5,200.5C 87.0623,201.506 86.3957,201.506 85.5,200.5C 84.3606,202.396 85.0272,203.396 87.5,203.5C 86.2275,204.434 84.7275,205.101 83,205.5C 81.3105,204.851 79.4771,204.851 77.5,205.5C 76.8333,205.5 76.5,205.167 76.5,204.5C 78.8234,203.942 81.1568,203.275 83.5,202.5C 81.3848,200.385 79.0514,200.051 76.5,201.5C 74.5922,197.097 73.2589,192.43 72.5,187.5C 72.5,185.167 72.5,182.833 72.5,180.5C 74.3495,181.872 75.6828,181.372 76.5,179C 74.2584,177.993 74.5918,177.159 77.5,176.5 Z"/></g>
<g><path style="opacity:1" fill="#723b29" d="M 193.5,179.5 C 193.5,179.167 193.5,178.833 193.5,178.5C 198.1,178.28 202.433,178.946 206.5,180.5C 206.5,181.167 206.167,181.5 205.5,181.5C 200.821,181.666 196.155,181.499 191.5,181C 192.833,180.667 194.167,180.333 195.5,180C 194.906,179.536 194.239,179.369 193.5,179.5 Z"/></g>
<g><path style="opacity:1" fill="#6a3b2d" d="M 155.5,181.5 C 155.5,181.833 155.5,182.167 155.5,182.5C 149.477,182.502 143.477,182.835 137.5,183.5C 137.167,183.5 136.833,183.5 136.5,183.5C 136.611,182.883 136.944,182.383 137.5,182C 131.804,181.83 126.138,181.33 120.5,180.5C 125.164,179.277 129.831,179.277 134.5,180.5C 144.472,179.315 154.472,178.815 164.5,179C 159.53,179.886 154.53,180.552 149.5,181C 151.473,181.495 153.473,181.662 155.5,181.5 Z"/></g>
<g><path style="opacity:1" fill="#b9784d" d="M 206.5,180.5 C 210.167,180.5 213.833,180.5 217.5,180.5C 219.429,180.231 221.095,180.731 222.5,182C 221.675,184.778 221.008,187.611 220.5,190.5C 218.131,190.851 215.797,191.018 213.5,191C 215.738,188.573 215.071,186.739 211.5,185.5C 210.702,185.957 210.369,186.624 210.5,187.5C 209.046,186.48 208.713,185.313 209.5,184C 208.167,183.333 206.833,183.333 205.5,184C 206.883,185.461 206.549,186.294 204.5,186.5C 202.708,185.691 200.708,185.191 198.5,185C 204.837,184.163 204.503,183.497 197.5,183C 200.365,182.817 203.031,182.317 205.5,181.5C 206.167,181.5 206.5,181.167 206.5,180.5 Z"/></g>
<g><path style="opacity:1" fill="#c8ac8d" d="M 122.5,182.5 C 126.371,182.185 130.038,182.518 133.5,183.5C 129.863,184.165 126.197,184.832 122.5,185.5C 121.913,184.767 121.913,183.767 122.5,182.5 Z"/></g>
<g><path style="opacity:1" fill="#b9845e" d="M 121.5,182.5 C 121.833,182.5 122.167,182.5 122.5,182.5C 121.913,183.767 121.913,184.767 122.5,185.5C 126.197,184.832 129.863,184.165 133.5,183.5C 134.5,183.5 135.5,183.5 136.5,183.5C 136.833,183.5 137.167,183.5 137.5,183.5C 139.265,184.461 141.265,184.795 143.5,184.5C 143.5,185.833 143.5,187.167 143.5,188.5C 141.712,188.215 140.045,188.548 138.5,189.5C 139.909,189.654 141.576,189.821 143.5,190C 141.277,190.566 139.277,191.4 137.5,192.5C 136.5,192.5 135.5,192.5 134.5,192.5C 132.473,192.662 130.473,192.495 128.5,192C 132.232,191.028 131.899,190.528 127.5,190.5C 125.117,190.361 123.117,191.028 121.5,192.5C 119.5,192.5 117.5,192.5 115.5,192.5C 117.447,191.85 119.113,190.683 120.5,189C 122.833,188.667 125.167,188.333 127.5,188C 124.5,187.667 121.5,187.333 118.5,187C 119.386,185.385 120.386,183.885 121.5,182.5 Z"/></g>
<g><path style="opacity:1" fill="#9f6a49" d="M 155.5,182.5 C 155.5,182.167 155.5,181.833 155.5,181.5C 165.167,181.5 174.833,181.5 184.5,181.5C 187.305,182.319 190.305,182.819 193.5,183C 192.167,184 192.167,185 193.5,186C 191.386,187.518 189.053,187.851 186.5,187C 191.508,186.131 191.175,185.464 185.5,185C 186.696,184.346 186.696,183.846 185.5,183.5C 184.526,185.743 184.192,188.076 184.5,190.5C 182.801,190.34 181.134,190.506 179.5,191C 182.5,191.667 185.5,191.667 188.5,191C 187.692,190.692 187.025,190.192 186.5,189.5C 189.106,188.348 191.773,188.182 194.5,189C 193.833,190 193.167,191 192.5,192C 189.854,192.497 187.187,192.664 184.5,192.5C 182.473,192.662 180.473,192.495 178.5,192C 177.167,191 177.167,190 178.5,189C 175.446,188.179 172.446,188.345 169.5,189.5C 171.423,190.308 173.423,190.808 175.5,191C 171.848,191.499 168.182,191.665 164.5,191.5C 164.461,190.417 164.127,189.417 163.5,188.5C 168.467,187.671 173.467,187.171 178.5,187C 178.034,185.701 178.034,184.201 178.5,182.5C 175.15,182.335 171.817,182.502 168.5,183C 175.503,183.497 175.837,184.163 169.5,185C 176.118,185.82 176.118,186.32 169.5,186.5C 164.5,186 159.5,185.5 154.5,185C 157.833,184.667 161.167,184.333 164.5,184C 161.722,182.608 158.722,182.108 155.5,182.5 Z"/></g>
<g><path style="opacity:1" fill="#a3623b" d="M 100.5,181.5 C 103.833,181.5 107.167,181.5 110.5,181.5C 114.135,182.114 117.802,182.448 121.5,182.5C 120.386,183.885 119.386,185.385 118.5,187C 121.5,187.333 124.5,187.667 127.5,188C 125.167,188.333 122.833,188.667 120.5,189C 119.113,190.683 117.447,191.85 115.5,192.5C 115.167,192.5 114.833,192.5 114.5,192.5C 113.448,192.649 112.448,192.483 111.5,192C 112.973,191.29 113.64,190.124 113.5,188.5C 111.325,188.682 109.325,189.349 107.5,190.5C 106.833,190.333 106.167,190.167 105.5,190C 106.598,189.23 106.598,188.397 105.5,187.5C 106.419,186.104 103.753,185.77 97.5,186.5C 97.9926,188.806 98.3259,191.139 98.5,193.5C 105.134,193.677 105.134,194.177 98.5,195C 98.8333,195.333 99.1667,195.667 99.5,196C 95.8333,196.333 92.1667,196.667 88.5,197C 91.8333,197.333 95.1667,197.667 98.5,198C 94.6425,198.81 90.9758,198.643 87.5,197.5C 87.5,196.833 87.1667,196.5 86.5,196.5C 86.281,195.325 86.6143,194.325 87.5,193.5C 90.773,194.585 94.1064,194.752 97.5,194C 93.9743,192.663 90.3076,192.163 86.5,192.5C 86.238,191.022 86.5713,189.689 87.5,188.5C 88.3857,189.325 88.719,190.325 88.5,191.5C 94.7323,191.973 95.3989,191.139 90.5,189C 91.5,188.667 92.5,188.333 93.5,188C 90.854,187.503 88.1873,187.336 85.5,187.5C 85.811,186.522 86.4777,185.855 87.5,185.5C 89.5159,186.706 91.5159,186.706 93.5,185.5C 90.5535,184.679 87.5535,184.179 84.5,184C 88.5141,181.635 92.8474,180.969 97.5,182C 94.5,182.333 91.5,182.667 88.5,183C 93.6323,183.29 98.6323,184.124 103.5,185.5C 103.5,184.5 103.5,183.5 103.5,182.5C 102.209,182.737 101.209,182.404 100.5,181.5 Z"/></g>
<g><path style="opacity:1" fill="#89543b" d="M 132.5,187.5 C 133.833,187.5 135.167,187.5 136.5,187.5C 136.5,188.833 136.5,190.167 136.5,191.5C 135.167,191.5 133.833,191.5 132.5,191.5C 132.5,190.167 132.5,188.833 132.5,187.5 Z"/></g>
<g><path style="opacity:1" fill="#a26a49" d="M 210.5,187.5 C 210.5,188.833 210.5,190.167 210.5,191.5C 207.203,191.329 206.869,191.995 209.5,193.5C 207.861,194.322 206.195,194.989 204.5,195.5C 196.699,195.294 196.699,194.628 204.5,193.5C 205.167,191.5 205.833,189.5 206.5,187.5C 205.127,187.343 203.793,187.51 202.5,188C 203.433,189.608 202.767,190.441 200.5,190.5C 198.884,189.885 197.551,188.885 196.5,187.5C 199.086,186.52 201.753,186.187 204.5,186.5C 206.549,186.294 206.883,185.461 205.5,184C 206.833,183.333 208.167,183.333 209.5,184C 208.713,185.313 209.046,186.48 210.5,187.5 Z"/></g>
<g><path style="opacity:1" fill="#794527" d="M 85.5,187.5 C 88.1873,187.336 90.854,187.503 93.5,188C 92.5,188.333 91.5,188.667 90.5,189C 95.3989,191.139 94.7323,191.973 88.5,191.5C 88.719,190.325 88.3857,189.325 87.5,188.5C 86.5713,189.689 86.238,191.022 86.5,192.5C 90.3076,192.163 93.9743,192.663 97.5,194C 94.1064,194.752 90.773,194.585 87.5,193.5C 86.6143,194.325 86.281,195.325 86.5,196.5C 85.2794,195.972 84.1127,195.305 83,194.5C 80.8615,195.769 78.6948,195.769 76.5,194.5C 77.0253,193.808 77.6919,193.308 78.5,193C 76.5406,191.316 76.5406,189.316 78.5,187C 76.0712,186.549 75.9045,185.715 78,184.5C 79.5095,185.09 81.0095,185.756 82.5,186.5C 81.624,187.251 80.624,187.751 79.5,188C 81.0762,188.44 82.4096,189.273 83.5,190.5C 83.0875,189.218 83.7542,188.218 85.5,187.5 Z"/></g>
<g><path style="opacity:1" fill="#cfa37b" d="M 134.5,192.5 C 134.67,193.822 134.337,194.989 133.5,196C 129.175,196.974 124.842,197.807 120.5,198.5C 120.034,196.799 120.034,195.299 120.5,194C 122.833,193.667 125.167,193.333 127.5,193C 125.527,192.505 123.527,192.338 121.5,192.5C 123.117,191.028 125.117,190.361 127.5,190.5C 131.899,190.528 132.232,191.028 128.5,192C 130.473,192.495 132.473,192.662 134.5,192.5 Z"/></g>
<g><path style="opacity:1" fill="#b16938" d="M 236.5,175.5 C 236.365,181.787 235.365,187.787 233.5,193.5C 232.033,190.742 231.367,191.075 231.5,194.5C 229.131,194.851 226.797,195.018 224.5,195C 224.833,194.667 225.167,194.333 225.5,194C 224.061,193.009 223.061,191.676 222.5,190C 223.5,188.333 224.5,186.667 225.5,185C 222.937,184.237 222.937,183.737 225.5,183.5C 226.672,183.919 227.672,184.585 228.5,185.5C 231.461,184.817 231.795,183.984 229.5,183C 230.167,182.667 230.833,182.333 231.5,182C 230.101,181.405 228.768,181.572 227.5,182.5C 226.374,181.192 226.374,179.858 227.5,178.5C 230.879,178.485 233.879,177.485 236.5,175.5 Z"/></g>
<g><path style="opacity:1" fill="#c98558" d="M 105.5,187.5 C 106.598,188.397 106.598,189.23 105.5,190C 106.167,190.167 106.833,190.333 107.5,190.5C 109.325,189.349 111.325,188.682 113.5,188.5C 113.64,190.124 112.973,191.29 111.5,192C 112.448,192.483 113.448,192.649 114.5,192.5C 113.316,193.688 113.316,194.855 114.5,196C 111.178,197.392 107.845,197.559 104.5,196.5C 106.119,196.095 108.119,195.595 110.5,195C 108.5,194.667 106.5,194.333 104.5,194C 111.064,192.05 110.731,191.217 103.5,191.5C 103.157,189.517 103.824,188.183 105.5,187.5 Z"/></g>
<g><path style="opacity:1" fill="#d8905a" d="M 220.5,190.5 C 219.197,191.679 217.197,192.845 214.5,194C 216.443,193.695 218.443,193.695 220.5,194C 217.879,194.939 215.212,195.772 212.5,196.5C 214.672,196.676 217.005,196.843 219.5,197C 217.779,197.739 216.113,198.573 214.5,199.5C 214.624,200.107 214.957,200.44 215.5,200.5C 216.791,200.263 217.791,200.596 218.5,201.5C 216.158,201.504 214.158,202.337 212.5,204C 221.835,203.695 221.835,204.695 212.5,207C 213.793,207.49 215.127,207.657 216.5,207.5C 217.239,207.369 217.906,207.536 218.5,208C 216.221,208.473 214.221,209.473 212.5,211C 213.833,211.333 215.167,211.667 216.5,212C 214.221,212.473 212.221,213.473 210.5,215C 211.95,215.117 213.45,214.95 215,214.5C 216.376,214.684 217.209,215.351 217.5,216.5C 214.335,215.964 211.669,216.797 209.5,219C 210.793,219.49 212.127,219.657 213.5,219.5C 214.239,219.369 214.906,219.536 215.5,220C 211.705,221.755 207.872,222.255 204,221.5C 202.887,222.305 201.721,222.972 200.5,223.5C 200.5,222.833 200.5,222.167 200.5,221.5C 202.196,221.315 203.529,220.481 204.5,219C 203.423,218.53 202.423,218.697 201.5,219.5C 201.672,218.508 201.338,217.842 200.5,217.5C 202.389,216.678 204.389,215.845 206.5,215C 205.072,214.421 203.738,214.588 202.5,215.5C 202.5,214.833 202.5,214.167 202.5,213.5C 205.319,211.197 208.319,209.03 211.5,207C 209.1,206.814 206.766,206.314 204.5,205.5C 205.5,204.667 206.5,203.833 207.5,203C 206.833,202.667 206.167,202.333 205.5,202C 206.672,201.581 207.672,200.915 208.5,200C 201.484,200.952 194.484,200.619 187.5,199C 192.495,199.082 197.495,199.082 202.5,199C 204.384,198.784 206.051,198.117 207.5,197C 206.552,196.517 205.552,196.351 204.5,196.5C 204.5,196.167 204.5,195.833 204.5,195.5C 206.195,194.989 207.861,194.322 209.5,193.5C 206.869,191.995 207.203,191.329 210.5,191.5C 210.5,190.167 210.5,188.833 210.5,187.5C 210.369,186.624 210.702,185.957 211.5,185.5C 215.071,186.739 215.738,188.573 213.5,191C 215.797,191.018 218.131,190.851 220.5,190.5 Z"/></g>
<g><path style="opacity:1" fill="#643b26" d="M 156.5,194.5 C 157.5,195.167 158.5,195.833 159.5,196.5C 157.856,196.286 156.356,196.62 155,197.5C 154.275,195.843 154.775,194.843 156.5,194.5 Z"/></g>
<g><path style="opacity:1" fill="#9d5c35" d="M 227.5,178.5 C 226.374,179.858 226.374,181.192 227.5,182.5C 228.768,181.572 230.101,181.405 231.5,182C 230.833,182.333 230.167,182.667 229.5,183C 231.795,183.984 231.461,184.817 228.5,185.5C 227.672,184.585 226.672,183.919 225.5,183.5C 222.937,183.737 222.937,184.237 225.5,185C 224.5,186.667 223.5,188.333 222.5,190C 223.061,191.676 224.061,193.009 225.5,194C 225.167,194.333 224.833,194.667 224.5,195C 226.797,195.018 229.131,194.851 231.5,194.5C 231.367,191.075 232.033,190.742 233.5,193.5C 233.59,196.152 232.924,198.485 231.5,200.5C 229.679,199.883 227.679,199.716 225.5,200C 227.5,199.167 229.5,198.333 231.5,197.5C 231.192,196.692 230.692,196.025 230,195.5C 228.331,197.721 226.331,198.055 224,196.5C 222.832,197.509 221.665,198.509 220.5,199.5C 218.711,198.753 217.044,199.086 215.5,200.5C 214.957,200.44 214.624,200.107 214.5,199.5C 216.113,198.573 217.779,197.739 219.5,197C 217.005,196.843 214.672,196.676 212.5,196.5C 215.212,195.772 217.879,194.939 220.5,194C 218.443,193.695 216.443,193.695 214.5,194C 217.197,192.845 219.197,191.679 220.5,190.5C 221.008,187.611 221.675,184.778 222.5,182C 221.095,180.731 219.429,180.231 217.5,180.5C 220.589,179.215 223.922,178.549 227.5,178.5 Z"/></g>
<g><path style="opacity:1" fill="#835134" d="M 169.5,195.5 C 177.301,196.628 177.301,197.294 169.5,197.5C 169.5,196.833 169.5,196.167 169.5,195.5 Z"/></g>
<g><path style="opacity:1" fill="#854c2c" d="M 105.5,187.5 C 103.824,188.183 103.157,189.517 103.5,191.5C 110.731,191.217 111.064,192.05 104.5,194C 106.5,194.333 108.5,194.667 110.5,195C 108.119,195.595 106.119,196.095 104.5,196.5C 107.845,197.559 111.178,197.392 114.5,196C 113.316,194.855 113.316,193.688 114.5,192.5C 114.833,192.5 115.167,192.5 115.5,192.5C 117.5,192.5 119.5,192.5 121.5,192.5C 123.527,192.338 125.527,192.505 127.5,193C 125.167,193.333 122.833,193.667 120.5,194C 120.034,195.299 120.034,196.799 120.5,198.5C 120.5,199.5 120.5,200.5 120.5,201.5C 118.214,201.405 116.214,200.738 114.5,199.5C 111.36,198.359 108.027,198.192 104.5,199C 103.944,199.383 103.611,199.883 103.5,200.5C 104.11,201.391 104.443,202.391 104.5,203.5C 99.5713,202.257 94.5713,201.257 89.5,200.5C 89.1667,200.833 88.8333,201.167 88.5,201.5C 91.4465,202.321 94.4465,202.821 97.5,203C 95.4553,205.508 93.122,206.008 90.5,204.5C 91.8734,204.657 93.2068,204.49 94.5,204C 92.1902,203.503 89.8568,203.337 87.5,203.5C 85.0272,203.396 84.3606,202.396 85.5,200.5C 86.3957,201.506 87.0623,201.506 87.5,200.5C 83.8979,198.678 83.8979,197.678 87.5,197.5C 90.9758,198.643 94.6425,198.81 98.5,198C 95.1667,197.667 91.8333,197.333 88.5,197C 92.1667,196.667 95.8333,196.333 99.5,196C 99.1667,195.667 98.8333,195.333 98.5,195C 105.134,194.177 105.134,193.677 98.5,193.5C 98.3259,191.139 97.9926,188.806 97.5,186.5C 103.753,185.77 106.419,186.104 105.5,187.5 Z"/></g>
<g><path style="opacity:1" fill="#e09c6a" d="M 114.5,199.5 C 110.881,200.244 107.215,200.577 103.5,200.5C 103.611,199.883 103.944,199.383 104.5,199C 108.027,198.192 111.36,198.359 114.5,199.5 Z"/></g>
<g><path style="opacity:1" fill="#8a583b" d="M 169.5,199.5 C 175.361,199.354 175.694,200.021 170.5,201.5C 168.646,201.39 166.646,201.057 164.5,200.5C 166.045,199.548 167.712,199.215 169.5,199.5 Z"/></g>
<g><path style="opacity:1" fill="#905a39" d="M 76.5,204.5 C 76.5,203.5 76.5,202.5 76.5,201.5C 79.0514,200.051 81.3848,200.385 83.5,202.5C 81.1568,203.275 78.8234,203.942 76.5,204.5 Z"/></g>
<g><path style="opacity:1" fill="#deab7e" d="M 155.5,182.5 C 158.722,182.108 161.722,182.608 164.5,184C 161.167,184.333 157.833,184.667 154.5,185C 159.5,185.5 164.5,186 169.5,186.5C 176.118,186.32 176.118,185.82 169.5,185C 175.837,184.163 175.503,183.497 168.5,183C 171.817,182.502 175.15,182.335 178.5,182.5C 178.034,184.201 178.034,185.701 178.5,187C 173.467,187.171 168.467,187.671 163.5,188.5C 164.127,189.417 164.461,190.417 164.5,191.5C 157.866,191.677 157.866,192.177 164.5,193C 161.793,193.395 159.127,193.895 156.5,194.5C 154.775,194.843 154.275,195.843 155,197.5C 156.356,196.62 157.856,196.286 159.5,196.5C 161.674,196.08 163.674,196.08 165.5,196.5C 161.802,197.394 158.135,198.394 154.5,199.5C 157.135,200.272 159.801,200.438 162.5,200C 159.971,201.062 157.304,201.895 154.5,202.5C 157.107,203.318 159.774,203.818 162.5,204C 159.638,204.27 156.972,205.104 154.5,206.5C 158.104,206.91 161.771,207.077 165.5,207C 161.775,208.014 158.108,209.181 154.5,210.5C 157.778,211.021 161.111,211.187 164.5,211C 161.092,211.98 157.758,213.147 154.5,214.5C 158.181,214.431 161.181,214.765 163.5,215.5C 160.991,216.113 158.491,216.78 156,217.5C 155.833,217.833 155.667,218.167 155.5,218.5C 156.333,218.833 157.167,219.167 158,219.5C 166.339,218.325 166.505,218.991 158.5,221.5C 156.91,221.628 155.577,222.295 154.5,223.5C 157.422,223.899 160.422,224.066 163.5,224C 156.356,226.24 149.023,227.073 141.5,226.5C 140.5,226.5 139.5,226.5 138.5,226.5C 139.924,224.285 142.091,223.285 145,223.5C 146.865,225.121 149.698,225.788 153.5,225.5C 153.126,221.336 153.126,217.336 153.5,213.5C 151.801,213.34 150.134,213.506 148.5,214C 149.634,215.016 149.301,215.683 147.5,216C 144.558,217.124 141.558,217.458 138.5,217C 140.087,216.138 141.754,215.471 143.5,215C 142.944,214.617 142.611,214.117 142.5,213.5C 143.919,212.549 145.585,212.216 147.5,212.5C 149.5,212.5 151.5,212.5 153.5,212.5C 153.5,211.5 153.5,210.5 153.5,209.5C 148.456,209.827 143.456,209.494 138.5,208.5C 142.724,206.92 147.058,206.42 151.5,207C 150.5,207.333 149.5,207.667 148.5,208C 150.134,208.494 151.801,208.66 153.5,208.5C 152.167,203.833 152.167,199.167 153.5,194.5C 150.402,194.587 150.068,194.087 152.5,193C 148.219,193.622 143.886,194.455 139.5,195.5C 137.627,195.518 137.294,195.018 138.5,194C 144.864,193.019 144.531,192.519 137.5,192.5C 139.277,191.4 141.277,190.566 143.5,190C 141.576,189.821 139.909,189.654 138.5,189.5C 140.045,188.548 141.712,188.215 143.5,188.5C 143.5,187.167 143.5,185.833 143.5,184.5C 141.265,184.795 139.265,184.461 137.5,183.5C 143.477,182.835 149.477,182.502 155.5,182.5 Z"/></g>
<g><path style="opacity:1" fill="#a26c4e" d="M 148.5,184.5 C 151.983,184.89 155.316,185.89 158.5,187.5C 155.628,188.306 153.128,189.64 151,191.5C 148.866,189.713 148.033,187.38 148.5,184.5 Z"/></g>
<g><path style="opacity:1" fill="#542718" d="M 120.5,204.5 C 118.265,204.795 116.265,204.461 114.5,203.5C 114.833,203.5 115.167,203.5 115.5,203.5C 117.726,201.82 119.393,202.153 120.5,204.5 Z"/></g>
<g><path style="opacity:1" fill="#dba071" d="M 193.5,179.5 C 194.239,179.369 194.906,179.536 195.5,180C 194.167,180.333 192.833,180.667 191.5,181C 196.155,181.499 200.821,181.666 205.5,181.5C 203.031,182.317 200.365,182.817 197.5,183C 204.503,183.497 204.837,184.163 198.5,185C 200.708,185.191 202.708,185.691 204.5,186.5C 201.753,186.187 199.086,186.52 196.5,187.5C 197.551,188.885 198.884,189.885 200.5,190.5C 202.767,190.441 203.433,189.608 202.5,188C 203.793,187.51 205.127,187.343 206.5,187.5C 205.833,189.5 205.167,191.5 204.5,193.5C 196.699,194.628 196.699,195.294 204.5,195.5C 204.5,195.833 204.5,196.167 204.5,196.5C 201.024,197.643 197.358,197.81 193.5,197C 191.457,193.489 188.79,192.822 185.5,195C 186.833,195.333 188.167,195.667 189.5,196C 185.833,196.333 182.167,196.667 178.5,197C 180.845,198.783 183.512,199.783 186.5,200C 183.629,200.118 180.962,200.784 178.5,202C 182.167,202.333 185.833,202.667 189.5,203C 182.829,203.926 176.163,204.759 169.5,205.5C 169.5,206.5 169.5,207.5 169.5,208.5C 173.316,207.38 176.983,207.38 180.5,208.5C 180.167,208.5 179.833,208.5 179.5,208.5C 175.901,209.344 172.234,209.677 168.5,209.5C 168.5,208.167 168.5,206.833 168.5,205.5C 167.127,205.657 165.793,205.49 164.5,205C 168.028,204.911 171.362,204.244 174.5,203C 172.264,202.921 170.93,202.421 170.5,201.5C 175.694,200.021 175.361,199.354 169.5,199.5C 169.5,198.833 169.5,198.167 169.5,197.5C 177.301,197.294 177.301,196.628 169.5,195.5C 168.957,195.44 168.624,195.107 168.5,194.5C 171.446,193.345 174.446,193.179 177.5,194C 176.833,194.333 176.167,194.667 175.5,195C 178.482,195.498 181.482,195.665 184.5,195.5C 184.5,194.5 184.5,193.5 184.5,192.5C 187.187,192.664 189.854,192.497 192.5,192C 193.167,191 193.833,190 194.5,189C 191.773,188.182 189.106,188.348 186.5,189.5C 187.025,190.192 187.692,190.692 188.5,191C 185.5,191.667 182.5,191.667 179.5,191C 181.134,190.506 182.801,190.34 184.5,190.5C 184.192,188.076 184.526,185.743 185.5,183.5C 186.696,183.846 186.696,184.346 185.5,185C 191.175,185.464 191.508,186.131 186.5,187C 189.053,187.851 191.386,187.518 193.5,186C 192.167,185 192.167,184 193.5,183C 190.305,182.819 187.305,182.319 184.5,181.5C 187.664,181.442 190.664,180.776 193.5,179.5 Z"/></g>
<g><path style="opacity:1" fill="#95532a" d="M 216.5,207.5 C 215.127,207.657 213.793,207.49 212.5,207C 221.835,204.695 221.835,203.695 212.5,204C 214.158,202.337 216.158,201.504 218.5,201.5C 219.583,201.461 220.583,201.127 221.5,200.5C 222.328,201.415 223.328,202.081 224.5,202.5C 232.316,201.164 232.483,201.83 225,204.5C 224.228,204.355 223.561,204.022 223,203.5C 221.208,205.628 219.042,206.961 216.5,207.5 Z"/></g>
<g><path style="opacity:1" fill="#b2764e" d="M 204.5,196.5 C 205.552,196.351 206.552,196.517 207.5,197C 206.051,198.117 204.384,198.784 202.5,199C 197.495,199.082 192.495,199.082 187.5,199C 194.484,200.619 201.484,200.952 208.5,200C 207.672,200.915 206.672,201.581 205.5,202C 206.167,202.333 206.833,202.667 207.5,203C 206.5,203.833 205.5,204.667 204.5,205.5C 206.766,206.314 209.1,206.814 211.5,207C 208.319,209.03 205.319,211.197 202.5,213.5C 193.167,212.833 193.167,212.167 202.5,211.5C 202.5,209.833 202.5,208.167 202.5,206.5C 199.174,206.646 196.007,205.979 193,204.5C 189.324,204.632 186.158,205.632 183.5,207.5C 182.391,207.557 181.391,207.89 180.5,208.5C 176.983,207.38 173.316,207.38 169.5,208.5C 169.5,207.5 169.5,206.5 169.5,205.5C 176.163,204.759 182.829,203.926 189.5,203C 185.833,202.667 182.167,202.333 178.5,202C 180.962,200.784 183.629,200.118 186.5,200C 183.512,199.783 180.845,198.783 178.5,197C 182.167,196.667 185.833,196.333 189.5,196C 188.167,195.667 186.833,195.333 185.5,195C 188.79,192.822 191.457,193.489 193.5,197C 197.358,197.81 201.024,197.643 204.5,196.5 Z"/></g>
<g><path style="opacity:1" fill="#a76237" d="M 104.5,203.5 C 104.5,204.167 104.5,204.833 104.5,205.5C 102.598,204.489 100.598,204.322 98.5,205C 99.1667,205.333 99.8333,205.667 100.5,206C 88.5,207 88.5,208 100.5,209C 101.328,209.915 102.328,210.581 103.5,211C 99.4841,211.186 95.4841,211.186 91.5,211C 96.6896,211.937 101.69,213.437 106.5,215.5C 106.5,216.167 106.5,216.833 106.5,217.5C 102.402,217.918 98.402,218.751 94.5,220C 97.2889,220.241 99.9556,220.908 102.5,222C 100.527,222.495 98.5273,222.662 96.5,222.5C 96.5,223.5 96.5,224.5 96.5,225.5C 98.1667,225.5 99.8333,225.5 101.5,225.5C 102.043,225.56 102.376,225.893 102.5,226.5C 101.271,227.281 99.938,227.781 98.5,228C 100.384,228.216 102.051,228.883 103.5,230C 101.19,230.497 98.8568,230.663 96.5,230.5C 96.297,228.362 95.297,226.695 93.5,225.5C 93.7093,224.914 94.0426,224.414 94.5,224C 91.8758,223.424 91.2092,222.09 92.5,220C 91.552,219.517 90.552,219.351 89.5,219.5C 89.281,218.325 89.6143,217.325 90.5,216.5C 92.8152,216.314 95.1485,215.98 97.5,215.5C 94.0245,214.92 90.6912,214.087 87.5,213C 89.9574,211.846 89.9574,210.512 87.5,209C 89.797,207.84 89.4637,206.84 86.5,206C 87.745,205.209 89.0783,204.709 90.5,204.5C 93.122,206.008 95.4553,205.508 97.5,203C 94.4465,202.821 91.4465,202.321 88.5,201.5C 88.8333,201.167 89.1667,200.833 89.5,200.5C 94.5713,201.257 99.5713,202.257 104.5,203.5 Z"/></g>
<g><path style="opacity:1" fill="#da9463" d="M 115.5,203.5 C 115.167,203.5 114.833,203.5 114.5,203.5C 111.689,203.826 109.022,204.659 106.5,206C 109.833,206.333 113.167,206.667 116.5,207C 112.83,207.548 109.163,208.048 105.5,208.5C 105.737,207.209 105.404,206.209 104.5,205.5C 104.5,204.833 104.5,204.167 104.5,203.5C 108.34,202.665 112.006,202.665 115.5,203.5 Z"/></g>
<g><path style="opacity:1" fill="#995a33" d="M 114.5,203.5 C 116.265,204.461 118.265,204.795 120.5,204.5C 121.15,206.435 121.483,208.435 121.5,210.5C 121.5,211.833 121.5,213.167 121.5,214.5C 121.209,215.649 120.376,216.316 119,216.5C 118.167,216.333 117.333,216.167 116.5,216C 116.833,215.667 117.167,215.333 117.5,215C 114.5,214.667 111.5,214.333 108.5,214C 107.167,213.333 107.167,212.667 108.5,212C 111.167,211.667 113.833,211.333 116.5,211C 115.892,210.13 115.059,209.63 114,209.5C 111.566,210.322 109.066,210.656 106.5,210.5C 106.5,211.833 106.5,213.167 106.5,214.5C 105.343,211.727 104.676,208.727 104.5,205.5C 105.404,206.209 105.737,207.209 105.5,208.5C 109.163,208.048 112.83,207.548 116.5,207C 113.167,206.667 109.833,206.333 106.5,206C 109.022,204.659 111.689,203.826 114.5,203.5 Z"/></g>
<g><path style="opacity:1" fill="#b4774f" d="M 184.5,192.5 C 184.5,193.5 184.5,194.5 184.5,195.5C 181.482,195.665 178.482,195.498 175.5,195C 176.167,194.667 176.833,194.333 177.5,194C 174.446,193.179 171.446,193.345 168.5,194.5C 168.624,195.107 168.957,195.44 169.5,195.5C 169.5,196.167 169.5,196.833 169.5,197.5C 169.5,198.167 169.5,198.833 169.5,199.5C 167.712,199.215 166.045,199.548 164.5,200.5C 166.646,201.057 168.646,201.39 170.5,201.5C 170.93,202.421 172.264,202.921 174.5,203C 171.362,204.244 168.028,204.911 164.5,205C 165.793,205.49 167.127,205.657 168.5,205.5C 168.5,206.833 168.5,208.167 168.5,209.5C 172.234,209.677 175.901,209.344 179.5,208.5C 179.917,209.124 180.584,209.457 181.5,209.5C 182.713,209.253 183.38,208.586 183.5,207.5C 189.49,206.739 195.49,207.072 201.5,208.5C 196.757,208.237 191.923,208.57 187,209.5C 186.167,209.833 185.333,210.167 184.5,210.5C 186.423,211.308 188.423,211.808 190.5,212C 189.5,212.333 188.5,212.667 187.5,213C 181.991,213.456 176.657,213.123 171.5,212C 170.833,212.333 170.167,212.667 169.5,213C 176.152,214.093 182.819,215.093 189.5,216C 185.771,217.7 182.105,217.867 178.5,216.5C 176.094,215.203 173.094,215.203 169.5,216.5C 167.265,216.795 165.265,216.461 163.5,215.5C 161.181,214.765 158.181,214.431 154.5,214.5C 157.758,213.147 161.092,211.98 164.5,211C 161.111,211.187 157.778,211.021 154.5,210.5C 158.108,209.181 161.775,208.014 165.5,207C 161.771,207.077 158.104,206.91 154.5,206.5C 156.972,205.104 159.638,204.27 162.5,204C 159.774,203.818 157.107,203.318 154.5,202.5C 157.304,201.895 159.971,201.062 162.5,200C 159.801,200.438 157.135,200.272 154.5,199.5C 158.135,198.394 161.802,197.394 165.5,196.5C 163.674,196.08 161.674,196.08 159.5,196.5C 158.5,195.833 157.5,195.167 156.5,194.5C 159.127,193.895 161.793,193.395 164.5,193C 157.866,192.177 157.866,191.677 164.5,191.5C 168.182,191.665 171.848,191.499 175.5,191C 173.423,190.808 171.423,190.308 169.5,189.5C 172.446,188.345 175.446,188.179 178.5,189C 177.167,190 177.167,191 178.5,192C 180.473,192.495 182.473,192.662 184.5,192.5 Z"/></g>
<g><path style="opacity:1" fill="#39170d" d="M 183.5,207.5 C 183.38,208.586 182.713,209.253 181.5,209.5C 180.584,209.457 179.917,209.124 179.5,208.5C 179.833,208.5 180.167,208.5 180.5,208.5C 181.391,207.89 182.391,207.557 183.5,207.5 Z"/></g>
<g><path style="opacity:1" fill="#895839" d="M 130.5,210.5 C 132.607,209.532 134.941,209.198 137.5,209.5C 137.5,210.5 137.5,211.5 137.5,212.5C 135.585,212.784 133.919,212.451 132.5,211.5C 132.158,210.662 131.492,210.328 130.5,210.5 Z"/></g>
<g><path style="opacity:1" fill="#f1d7b4" d="M 147.5,212.5 C 145.585,212.216 143.919,212.549 142.5,213.5C 141.022,213.762 139.689,213.429 138.5,212.5C 142.036,210.91 145.703,210.41 149.5,211C 148.584,211.278 147.918,211.778 147.5,212.5 Z"/></g>
<g><path style="opacity:1" fill="#6e3a1f" d="M 104.5,205.5 C 104.676,208.727 105.343,211.727 106.5,214.5C 106.5,214.833 106.5,215.167 106.5,215.5C 101.69,213.437 96.6896,211.937 91.5,211C 95.4841,211.186 99.4841,211.186 103.5,211C 102.328,210.581 101.328,209.915 100.5,209C 88.5,208 88.5,207 100.5,206C 99.8333,205.667 99.1667,205.333 98.5,205C 100.598,204.322 102.598,204.489 104.5,205.5 Z"/></g>
<g><path style="opacity:1" fill="#613923" d="M 200.5,217.5 C 199.022,217.762 197.689,217.429 196.5,216.5C 198.396,215.534 200.396,215.201 202.5,215.5C 203.738,214.588 205.072,214.421 206.5,215C 204.389,215.845 202.389,216.678 200.5,217.5 Z"/></g>
<g><path style="opacity:1" fill="#d48c59" d="M 121.5,214.5 C 122.272,215.694 123.272,216.694 124.5,217.5C 124.369,218.376 124.702,219.043 125.5,219.5C 127.768,218.456 130.101,218.289 132.5,219C 129.782,220.072 127.115,221.238 124.5,222.5C 127.167,222.833 129.833,223.167 132.5,223.5C 129.673,224.932 126.673,225.599 123.5,225.5C 123.737,224.209 123.404,223.209 122.5,222.5C 117.695,221.513 112.695,221.179 107.5,221.5C 107.768,219.901 107.434,218.568 106.5,217.5C 106.5,216.833 106.5,216.167 106.5,215.5C 106.5,215.167 106.5,214.833 106.5,214.5C 106.5,213.167 106.5,211.833 106.5,210.5C 109.066,210.656 111.566,210.322 114,209.5C 115.059,209.63 115.892,210.13 116.5,211C 113.833,211.333 111.167,211.667 108.5,212C 107.167,212.667 107.167,213.333 108.5,214C 111.5,214.333 114.5,214.667 117.5,215C 117.167,215.333 116.833,215.667 116.5,216C 117.333,216.167 118.167,216.333 119,216.5C 120.376,216.316 121.209,215.649 121.5,214.5 Z"/></g>
<g><path style="opacity:1" fill="#e4ad7c" d="M 121.5,210.5 C 124.5,210.5 127.5,210.5 130.5,210.5C 131.492,210.328 132.158,210.662 132.5,211.5C 129.356,211.956 126.356,212.956 123.5,214.5C 126.717,214.658 130.05,214.825 133.5,215C 130.688,216.549 127.688,217.382 124.5,217.5C 123.272,216.694 122.272,215.694 121.5,214.5C 121.5,213.167 121.5,211.833 121.5,210.5 Z"/></g>
<g><path style="opacity:1" fill="#91512c" d="M 109.5,216.5 C 113.49,216.999 117.49,217.499 121.5,218C 121.957,218.414 122.291,218.914 122.5,219.5C 118.554,219.092 114.554,219.092 110.5,219.5C 109.614,218.675 109.281,217.675 109.5,216.5 Z"/></g>
<g><path style="opacity:1" fill="#de9968" d="M 202.5,213.5 C 202.5,214.167 202.5,214.833 202.5,215.5C 200.396,215.201 198.396,215.534 196.5,216.5C 197.689,217.429 199.022,217.762 200.5,217.5C 201.338,217.842 201.672,218.508 201.5,219.5C 198.612,218.99 196.279,219.656 194.5,221.5C 192.958,220.699 191.292,220.366 189.5,220.5C 189.38,219.414 188.713,218.747 187.5,218.5C 184.435,219.064 181.435,219.731 178.5,220.5C 176.034,219.366 173.367,219.199 170.5,220C 169.244,220.417 168.577,221.25 168.5,222.5C 164.958,222.813 161.625,222.479 158.5,221.5C 166.505,218.991 166.339,218.325 158,219.5C 157.167,219.167 156.333,218.833 155.5,218.5C 155.667,218.167 155.833,217.833 156,217.5C 158.491,216.78 160.991,216.113 163.5,215.5C 165.265,216.461 167.265,216.795 169.5,216.5C 172.344,217.551 175.344,217.551 178.5,216.5C 182.105,217.867 185.771,217.7 189.5,216C 182.819,215.093 176.152,214.093 169.5,213C 170.167,212.667 170.833,212.333 171.5,212C 176.657,213.123 181.991,213.456 187.5,213C 188.5,212.667 189.5,212.333 190.5,212C 188.423,211.808 186.423,211.308 184.5,210.5C 185.333,210.167 186.167,209.833 187,209.5C 191.923,208.57 196.757,208.237 201.5,208.5C 195.49,207.072 189.49,206.739 183.5,207.5C 186.158,205.632 189.324,204.632 193,204.5C 196.007,205.979 199.174,206.646 202.5,206.5C 202.5,208.167 202.5,209.833 202.5,211.5C 193.167,212.167 193.167,212.833 202.5,213.5 Z"/></g>
<g><path style="opacity:1" fill="#efc494" d="M 178.5,216.5 C 175.344,217.551 172.344,217.551 169.5,216.5C 173.094,215.203 176.094,215.203 178.5,216.5 Z"/></g>
<g><path style="opacity:1" fill="#673e29" d="M 87.5,203.5 C 89.8568,203.337 92.1902,203.503 94.5,204C 93.2068,204.49 91.8734,204.657 90.5,204.5C 89.0783,204.709 87.745,205.209 86.5,206C 89.4637,206.84 89.797,207.84 87.5,209C 89.9574,210.512 89.9574,211.846 87.5,213C 90.6912,214.087 94.0245,214.92 97.5,215.5C 95.1485,215.98 92.8152,216.314 90.5,216.5C 89.6143,217.325 89.281,218.325 89.5,219.5C 90.552,219.351 91.552,219.517 92.5,220C 91.2092,222.09 91.8758,223.424 94.5,224C 94.0426,224.414 93.7093,224.914 93.5,225.5C 95.297,226.695 96.297,228.362 96.5,230.5C 98.8568,230.663 101.19,230.497 103.5,230C 102.051,228.883 100.384,228.216 98.5,228C 99.938,227.781 101.271,227.281 102.5,226.5C 102.376,225.893 102.043,225.56 101.5,225.5C 104.019,224.206 106.352,224.706 108.5,227C 103.635,227.798 103.969,228.632 109.5,229.5C 109.833,230.167 110.167,230.833 110.5,231.5C 110.389,232.117 110.056,232.617 109.5,233C 110.793,233.49 112.127,233.657 113.5,233.5C 113.158,234.338 112.492,234.672 111.5,234.5C 106.514,232.213 101.181,231.047 95.5,231C 93.9281,227.268 91.9281,226.768 89.5,229.5C 84.2442,222.211 80.2442,214.211 77.5,205.5C 79.4771,204.851 81.3105,204.851 83,205.5C 84.7275,205.101 86.2275,204.434 87.5,203.5 Z"/></g>
<g><path style="opacity:1" fill="#734027" d="M 217.5,216.5 C 215.924,217.143 214.59,218.143 213.5,219.5C 212.127,219.657 210.793,219.49 209.5,219C 211.669,216.797 214.335,215.964 217.5,216.5 Z"/></g>
<g><path style="opacity:1" fill="#ad6e45" d="M 134.5,192.5 C 135.5,192.5 136.5,192.5 137.5,192.5C 144.531,192.519 144.864,193.019 138.5,194C 137.294,195.018 137.627,195.518 139.5,195.5C 143.886,194.455 148.219,193.622 152.5,193C 150.068,194.087 150.402,194.587 153.5,194.5C 152.167,199.167 152.167,203.833 153.5,208.5C 151.801,208.66 150.134,208.494 148.5,208C 149.5,207.667 150.5,207.333 151.5,207C 147.058,206.42 142.724,206.92 138.5,208.5C 143.456,209.494 148.456,209.827 153.5,209.5C 153.5,210.5 153.5,211.5 153.5,212.5C 151.5,212.5 149.5,212.5 147.5,212.5C 147.918,211.778 148.584,211.278 149.5,211C 145.703,210.41 142.036,210.91 138.5,212.5C 139.689,213.429 141.022,213.762 142.5,213.5C 142.611,214.117 142.944,214.617 143.5,215C 141.754,215.471 140.087,216.138 138.5,217C 141.558,217.458 144.558,217.124 147.5,216C 149.301,215.683 149.634,215.016 148.5,214C 150.134,213.506 151.801,213.34 153.5,213.5C 153.126,217.336 153.126,221.336 153.5,225.5C 149.698,225.788 146.865,225.121 145,223.5C 142.091,223.285 139.924,224.285 138.5,226.5C 136.075,226.684 136.075,227.351 138.5,228.5C 137.833,228.833 137.167,229.167 136.5,229.5C 134.553,228.723 132.72,227.723 131,226.5C 128.447,227.108 125.947,227.775 123.5,228.5C 122.85,226.565 122.517,224.565 122.5,222.5C 123.404,223.209 123.737,224.209 123.5,225.5C 126.673,225.599 129.673,224.932 132.5,223.5C 129.833,223.167 127.167,222.833 124.5,222.5C 127.115,221.238 129.782,220.072 132.5,219C 130.101,218.289 127.768,218.456 125.5,219.5C 124.702,219.043 124.369,218.376 124.5,217.5C 127.688,217.382 130.688,216.549 133.5,215C 130.05,214.825 126.717,214.658 123.5,214.5C 126.356,212.956 129.356,211.956 132.5,211.5C 133.919,212.451 135.585,212.784 137.5,212.5C 137.5,211.5 137.5,210.5 137.5,209.5C 134.941,209.198 132.607,209.532 130.5,210.5C 127.5,210.5 124.5,210.5 121.5,210.5C 121.483,208.435 121.15,206.435 120.5,204.5C 119.393,202.153 117.726,201.82 115.5,203.5C 112.006,202.665 108.34,202.665 104.5,203.5C 104.443,202.391 104.11,201.391 103.5,200.5C 107.215,200.577 110.881,200.244 114.5,199.5C 116.214,200.738 118.214,201.405 120.5,201.5C 120.5,200.5 120.5,199.5 120.5,198.5C 124.842,197.807 129.175,196.974 133.5,196C 134.337,194.989 134.67,193.822 134.5,192.5 Z"/></g>
<g><path style="opacity:1" fill="#613824" d="M 133.5,206.5 C 134.675,206.281 135.675,206.614 136.5,207.5C 134.955,208.452 133.288,208.785 131.5,208.5C 132.167,207.833 132.833,207.167 133.5,206.5 Z"/></g>
<g><path style="opacity:1" fill="#e4c49e" d="M 133.5,206.5 C 132.833,207.167 132.167,207.833 131.5,208.5C 128.373,208.876 125.373,208.876 122.5,208.5C 125.985,206.906 129.652,206.24 133.5,206.5 Z"/></g>
<g><path style="opacity:1" fill="#e8caa5" d="M 145.5,202.5 C 146.873,202.343 148.207,202.51 149.5,203C 145.965,204.574 142.298,205.241 138.5,205C 140.927,204.098 143.26,203.264 145.5,202.5 Z"/></g>
<g><path style="opacity:1" fill="#daab83" d="M 127.5,199.5 C 129.199,199.34 130.866,199.506 132.5,200C 131.332,201.406 131.665,202.572 133.5,203.5C 129.964,205.09 126.297,205.59 122.5,205C 124.392,204.027 126.392,203.36 128.5,203C 121.14,202.342 120.806,201.176 127.5,199.5 Z"/></g>
<g><path style="opacity:1" fill="#edcaa4" d="M 142.5,199.5 C 144.527,199.338 146.527,199.505 148.5,200C 145.166,201.515 141.833,202.015 138.5,201.5C 139.949,200.828 141.282,200.161 142.5,199.5 Z"/></g>
<g><path style="opacity:1" fill="#e5c39c" d="M 144.5,195.5 C 146.857,195.337 149.19,195.503 151.5,196C 146.935,197.645 142.269,198.312 137.5,198C 139.927,197.098 142.26,196.264 144.5,195.5 Z"/></g>
<g><path style="opacity:1" fill="#f2d8b5" d="M 143.5,218.5 C 146.187,218.336 148.854,218.503 151.5,219C 147.584,220.451 143.584,221.118 139.5,221C 141.066,220.392 142.4,219.558 143.5,218.5 Z"/></g>
<g><path style="opacity:1" fill="#7e4b2e" d="M 189.5,220.5 C 185.114,221.784 181.447,221.784 178.5,220.5C 181.435,219.731 184.435,219.064 187.5,218.5C 188.713,218.747 189.38,219.414 189.5,220.5 Z"/></g>
<g><path style="opacity:1" fill="#8f552f" d="M 200.5,221.5 C 198.5,221.5 196.5,221.5 194.5,221.5C 196.279,219.656 198.612,218.99 201.5,219.5C 202.423,218.697 203.423,218.53 204.5,219C 203.529,220.481 202.196,221.315 200.5,221.5 Z"/></g>
<g><path style="opacity:1" fill="#8f4f2a" d="M 106.5,217.5 C 107.434,218.568 107.768,219.901 107.5,221.5C 112.695,221.179 117.695,221.513 122.5,222.5C 122.517,224.565 122.85,226.565 123.5,228.5C 128.503,229.336 133.503,230.669 138.5,232.5C 137.833,232.833 137.167,233.167 136.5,233.5C 134.682,232.364 132.682,231.697 130.5,231.5C 123.79,231.457 117.123,231.457 110.5,231.5C 110.167,230.833 109.833,230.167 109.5,229.5C 103.969,228.632 103.635,227.798 108.5,227C 106.352,224.706 104.019,224.206 101.5,225.5C 99.8333,225.5 98.1667,225.5 96.5,225.5C 96.5,224.5 96.5,223.5 96.5,222.5C 98.5273,222.662 100.527,222.495 102.5,222C 99.9556,220.908 97.2889,220.241 94.5,220C 98.402,218.751 102.402,217.918 106.5,217.5 Z"/></g>
<g><path style="opacity:1" fill="#da8e5b" d="M 109.5,229.5 C 109.149,227.131 108.982,224.797 109,222.5C 112.03,222.618 115.197,222.785 118.5,223C 115.865,224.164 113.198,225.331 110.5,226.5C 113.002,226.621 115.668,226.788 118.5,227C 115.625,228.302 112.625,229.135 109.5,229.5 Z"/></g>
<g><path style="opacity:1" fill="#b4754b" d="M 158.5,221.5 C 161.625,222.479 164.958,222.813 168.5,222.5C 173.179,222.334 177.845,222.501 182.5,223C 183.741,224.487 183.241,225.32 181,225.5C 177.191,223.024 173.358,223.024 169.5,225.5C 170.5,226.167 171.5,226.833 172.5,227.5C 169.195,229.55 165.862,229.883 162.5,228.5C 161.688,227.367 160.021,227.2 157.5,228C 153.764,229.507 153.764,230.34 157.5,230.5C 157.611,231.117 157.944,231.617 158.5,232C 156.754,232.471 155.087,233.138 153.5,234C 154.5,234.333 155.5,234.667 156.5,235C 155.058,235.377 154.058,236.21 153.5,237.5C 151.597,237.204 149.93,236.537 148.5,235.5C 150.103,235.688 151.437,235.188 152.5,234C 150.285,233.31 148.118,232.476 146,231.5C 144.159,232.125 142.326,232.292 140.5,232C 141.416,231.722 142.082,231.222 142.5,230.5C 144.512,229.772 146.512,228.938 148.5,228C 145.779,227.398 143.113,227.565 140.5,228.5C 140.833,227.833 141.167,227.167 141.5,226.5C 149.023,227.073 156.356,226.24 163.5,224C 160.422,224.066 157.422,223.899 154.5,223.5C 155.577,222.295 156.91,221.628 158.5,221.5 Z"/></g>
<g><path style="opacity:1" fill="#b46b39" d="M 231.5,200.5 C 228.945,211.503 224.279,221.503 217.5,230.5C 215.282,230.614 213.282,231.28 211.5,232.5C 211.38,231.414 210.713,230.747 209.5,230.5C 208.218,231.137 207.218,231.137 206.5,230.5C 207.714,228.931 209.381,228.098 211.5,228C 210.062,227.781 208.729,227.281 207.5,226.5C 209.5,225.833 211.5,225.167 213.5,224.5C 208.224,223.211 203.058,223.544 198,225.5C 196.319,225.392 195.152,224.725 194.5,223.5C 196.5,223.5 198.5,223.5 200.5,223.5C 201.721,222.972 202.887,222.305 204,221.5C 207.872,222.255 211.705,221.755 215.5,220C 214.906,219.536 214.239,219.369 213.5,219.5C 214.59,218.143 215.924,217.143 217.5,216.5C 217.209,215.351 216.376,214.684 215,214.5C 213.45,214.95 211.95,215.117 210.5,215C 212.221,213.473 214.221,212.473 216.5,212C 215.167,211.667 213.833,211.333 212.5,211C 214.221,209.473 216.221,208.473 218.5,208C 217.906,207.536 217.239,207.369 216.5,207.5C 219.042,206.961 221.208,205.628 223,203.5C 223.561,204.022 224.228,204.355 225,204.5C 232.483,201.83 232.316,201.164 224.5,202.5C 223.328,202.081 222.328,201.415 221.5,200.5C 220.583,201.127 219.583,201.461 218.5,201.5C 217.791,200.596 216.791,200.263 215.5,200.5C 217.044,199.086 218.711,198.753 220.5,199.5C 221.665,198.509 222.832,197.509 224,196.5C 226.331,198.055 228.331,197.721 230,195.5C 230.692,196.025 231.192,196.692 231.5,197.5C 229.5,198.333 227.5,199.167 225.5,200C 227.679,199.716 229.679,199.883 231.5,200.5 Z"/></g>
<g><path style="opacity:1" fill="#f0bc89" d="M 142.5,230.5 C 140.007,230.869 139.34,230.203 140.5,228.5C 143.113,227.565 145.779,227.398 148.5,228C 146.512,228.938 144.512,229.772 142.5,230.5 Z"/></g>
<g><path style="opacity:1" fill="#f6d8b1" d="M 162.5,228.5 C 160.833,229.167 159.167,229.833 157.5,230.5C 153.764,230.34 153.764,229.507 157.5,228C 160.021,227.2 161.688,227.367 162.5,228.5 Z"/></g>
<g><path style="opacity:1" fill="#e6a774" d="M 178.5,220.5 C 181.447,221.784 185.114,221.784 189.5,220.5C 191.292,220.366 192.958,220.699 194.5,221.5C 196.5,221.5 198.5,221.5 200.5,221.5C 200.5,222.167 200.5,222.833 200.5,223.5C 198.5,223.5 196.5,223.5 194.5,223.5C 191.102,223.18 187.768,223.513 184.5,224.5C 187.333,224.582 190.333,224.748 193.5,225C 189.774,225.428 186.441,226.761 183.5,229C 188.493,228.325 193.493,228.658 198.5,230C 198.833,230.333 199.167,230.667 199.5,231C 196.774,231.182 194.107,231.682 191.5,232.5C 193.655,233.001 195.322,234.001 196.5,235.5C 191.833,235.5 187.167,235.5 182.5,235.5C 180.621,235.607 180.288,235.107 181.5,234C 189.348,232.403 189.348,231.403 181.5,231C 182.337,229.989 182.67,228.822 182.5,227.5C 177.506,228.83 172.506,230.164 167.5,231.5C 161.034,232.623 161.034,233.29 167.5,233.5C 169.679,232.941 171.846,232.274 174,231.5C 174.5,231.833 175,232.167 175.5,232.5C 174.051,233.172 172.718,233.839 171.5,234.5C 165.485,235.237 159.485,236.237 153.5,237.5C 154.058,236.21 155.058,235.377 156.5,235C 155.5,234.667 154.5,234.333 153.5,234C 155.087,233.138 156.754,232.471 158.5,232C 157.944,231.617 157.611,231.117 157.5,230.5C 159.167,229.833 160.833,229.167 162.5,228.5C 165.862,229.883 169.195,229.55 172.5,227.5C 171.5,226.833 170.5,226.167 169.5,225.5C 173.358,223.024 177.191,223.024 181,225.5C 183.241,225.32 183.741,224.487 182.5,223C 177.845,222.501 173.179,222.334 168.5,222.5C 168.577,221.25 169.244,220.417 170.5,220C 173.367,219.199 176.034,219.366 178.5,220.5 Z"/></g>
<g><path style="opacity:1" fill="#ce8451" d="M 138.5,226.5 C 139.5,226.5 140.5,226.5 141.5,226.5C 141.167,227.167 140.833,227.833 140.5,228.5C 139.34,230.203 140.007,230.869 142.5,230.5C 142.082,231.222 141.416,231.722 140.5,232C 142.326,232.292 144.159,232.125 146,231.5C 148.118,232.476 150.285,233.31 152.5,234C 151.437,235.188 150.103,235.688 148.5,235.5C 147.5,235.5 146.5,235.5 145.5,235.5C 142.315,235.172 138.982,235.172 135.5,235.5C 132.96,233.587 130.293,233.254 127.5,234.5C 122.819,234.331 118.152,233.998 113.5,233.5C 112.127,233.657 110.793,233.49 109.5,233C 110.056,232.617 110.389,232.117 110.5,231.5C 117.123,231.457 123.79,231.457 130.5,231.5C 132.682,231.697 134.682,232.364 136.5,233.5C 137.167,233.167 137.833,232.833 138.5,232.5C 133.503,230.669 128.503,229.336 123.5,228.5C 125.947,227.775 128.447,227.108 131,226.5C 132.72,227.723 134.553,228.723 136.5,229.5C 137.167,229.167 137.833,228.833 138.5,228.5C 136.075,227.351 136.075,226.684 138.5,226.5 Z"/></g>
<g><path style="opacity:1" fill="#bb7b50" d="M 182.5,235.5 C 178.885,236.394 175.218,236.061 171.5,234.5C 172.718,233.839 174.051,233.172 175.5,232.5C 175,232.167 174.5,231.833 174,231.5C 171.846,232.274 169.679,232.941 167.5,233.5C 167.5,232.833 167.5,232.167 167.5,231.5C 172.506,230.164 177.506,228.83 182.5,227.5C 182.67,228.822 182.337,229.989 181.5,231C 189.348,231.403 189.348,232.403 181.5,234C 180.288,235.107 180.621,235.607 182.5,235.5 Z"/></g>
<g><path style="opacity:1" fill="#6f3e26" d="M 167.5,231.5 C 167.5,232.167 167.5,232.833 167.5,233.5C 161.034,233.29 161.034,232.623 167.5,231.5 Z"/></g>
<g><path style="opacity:1" fill="#d38d59" d="M 194.5,223.5 C 195.152,224.725 196.319,225.392 198,225.5C 203.058,223.544 208.224,223.211 213.5,224.5C 211.5,225.167 209.5,225.833 207.5,226.5C 208.729,227.281 210.062,227.781 211.5,228C 209.381,228.098 207.714,228.931 206.5,230.5C 207.218,231.137 208.218,231.137 209.5,230.5C 210.713,230.747 211.38,231.414 211.5,232.5C 206.375,232.993 201.375,233.993 196.5,235.5C 195.322,234.001 193.655,233.001 191.5,232.5C 194.107,231.682 196.774,231.182 199.5,231C 199.167,230.667 198.833,230.333 198.5,230C 193.493,228.658 188.493,228.325 183.5,229C 186.441,226.761 189.774,225.428 193.5,225C 190.333,224.748 187.333,224.582 184.5,224.5C 187.768,223.513 191.102,223.18 194.5,223.5 Z"/></g>
<g><path style="opacity:1" fill="#1a0d0a" d="M 111.5,234.5 C 107.702,235.483 103.702,235.817 99.5,235.5C 98.1266,235.343 96.7932,235.51 95.5,236C 96.6956,236.654 96.6956,237.154 95.5,237.5C 93.4827,236.327 92.816,234.827 93.5,233C 92.212,232.761 91.212,233.261 90.5,234.5C 89.6993,232.958 89.366,231.292 89.5,229.5C 91.9281,226.768 93.9281,227.268 95.5,231C 101.181,231.047 106.514,232.213 111.5,234.5 Z"/></g>
<g><path style="opacity:1" fill="#88563f" d="M 127.5,234.5 C 130.293,233.254 132.96,233.587 135.5,235.5C 132.555,236.468 129.555,236.634 126.5,236C 132.134,235.366 132.468,234.866 127.5,234.5 Z"/></g>
<g><path style="opacity:1" fill="#532417" d="M 217.5,230.5 C 217.167,231.167 216.833,231.833 216.5,232.5C 206.139,237.101 195.473,239.101 184.5,238.5C 171.182,238.438 157.849,238.771 144.5,239.5C 141.5,239.5 138.5,239.5 135.5,239.5C 136.694,238.728 137.694,237.728 138.5,236.5C 141.125,237.924 143.458,237.591 145.5,235.5C 146.5,235.5 147.5,235.5 148.5,235.5C 149.93,236.537 151.597,237.204 153.5,237.5C 159.485,236.237 165.485,235.237 171.5,234.5C 175.218,236.061 178.885,236.394 182.5,235.5C 187.167,235.5 191.833,235.5 196.5,235.5C 201.375,233.993 206.375,232.993 211.5,232.5C 213.282,231.28 215.282,230.614 217.5,230.5 Z"/></g>
<g><path style="opacity:1" fill="#956957" d="M 145.5,235.5 C 143.458,237.591 141.125,237.924 138.5,236.5C 137.209,236.737 136.209,236.404 135.5,235.5C 138.982,235.172 142.315,235.172 145.5,235.5 Z"/></g>
<g><path style="opacity:1" fill="#34120c" d="M 113.5,233.5 C 118.152,233.998 122.819,234.331 127.5,234.5C 132.468,234.866 132.134,235.366 126.5,236C 129.555,236.634 132.555,236.468 135.5,235.5C 136.209,236.404 137.209,236.737 138.5,236.5C 137.694,237.728 136.694,238.728 135.5,239.5C 128.493,239.059 121.493,238.892 114.5,239C 115.711,239.893 115.711,240.726 114.5,241.5C 112.974,241.006 111.641,240.339 110.5,239.5C 107.13,237.642 103.463,236.309 99.5,235.5C 103.702,235.817 107.702,235.483 111.5,234.5C 112.492,234.672 113.158,234.338 113.5,233.5 Z"/></g>
<g><path style="opacity:1" fill="#82553d" d="M 99.5,235.5 C 103.463,236.309 107.13,237.642 110.5,239.5C 109.957,239.56 109.624,239.893 109.5,240.5C 110.193,241.518 110.859,242.518 111.5,243.5C 108.311,243.142 105.311,242.475 102.5,241.5C 97.271,241.221 93.271,238.887 90.5,234.5C 91.212,233.261 92.212,232.761 93.5,233C 92.816,234.827 93.4827,236.327 95.5,237.5C 96.6956,237.154 96.6956,236.654 95.5,236C 96.7932,235.51 98.1266,235.343 99.5,235.5 Z"/></g>
<g><path style="opacity:1" fill="#aa6235" d="M 102.5,241.5 C 100.9,240.356 99.2331,239.189 97.5,238C 100.828,238.475 104.162,239.309 107.5,240.5C 105.955,241.452 104.288,241.785 102.5,241.5 Z"/></g>
<g><path style="opacity:1" fill="#a66b45" d="M 135.5,239.5 C 138.5,239.5 141.5,239.5 144.5,239.5C 142.708,240.309 140.708,240.809 138.5,241C 139.833,241.333 141.167,241.667 142.5,242C 138.11,242.772 133.777,242.606 129.5,241.5C 128.713,242.242 128.047,243.075 127.5,244C 124.518,244.498 121.518,244.665 118.5,244.5C 116.05,244.702 113.717,244.369 111.5,243.5C 110.859,242.518 110.193,241.518 109.5,240.5C 109.624,239.893 109.957,239.56 110.5,239.5C 111.641,240.339 112.974,241.006 114.5,241.5C 115.711,240.726 115.711,239.893 114.5,239C 121.493,238.892 128.493,239.059 135.5,239.5 Z"/></g>
<g><path style="opacity:1" fill="#cb8455" d="M 216.5,232.5 C 215.396,237.411 212.396,240.578 207.5,242C 201.513,242.998 195.513,243.832 189.5,244.5C 184.298,245.244 179.631,244.077 175.5,241C 178.999,241.658 182.499,241.492 186,240.5C 187.3,241.707 188.8,242.374 190.5,242.5C 190.5,241.5 190.5,240.5 190.5,239.5C 188.265,239.795 186.265,239.461 184.5,238.5C 195.473,239.101 206.139,237.101 216.5,232.5 Z"/></g>
<g><path style="opacity:1" fill="#d3a37c" d="M 184.5,238.5 C 186.265,239.461 188.265,239.795 190.5,239.5C 190.5,240.5 190.5,241.5 190.5,242.5C 188.8,242.374 187.3,241.707 186,240.5C 182.499,241.492 178.999,241.658 175.5,241C 179.631,244.077 184.298,245.244 189.5,244.5C 165.836,247.114 142.169,247.114 118.5,244.5C 121.518,244.665 124.518,244.498 127.5,244C 128.047,243.075 128.713,242.242 129.5,241.5C 133.777,242.606 138.11,242.772 142.5,242C 141.167,241.667 139.833,241.333 138.5,241C 140.708,240.809 142.708,240.309 144.5,239.5C 157.849,238.771 171.182,238.438 184.5,238.5 Z"/></g>
<g><path style="opacity:1" fill="#ad6e46" d="M 147.5,241.5 C 154.989,240.344 162.655,240.178 170.5,241C 171.167,241.667 171.833,242.333 172.5,243C 168.887,242.734 165.22,242.234 161.5,241.5C 160.5,241.667 159.5,241.833 158.5,242C 159.696,242.654 159.696,243.154 158.5,243.5C 154.843,242.752 151.177,242.085 147.5,241.5 Z"/></g>
</svg>
