<svg width="18.717285" height="16.666626" viewBox="0 0 18.7173 16.6666" fill="none" xmlns="http://www.w3.org/2000/svg" xmlns:xlink="http://www.w3.org/1999/xlink">
	<desc>
			Created with Pixso.
	</desc>
	<defs/>
	<path id="Vector" d="M11.45 16.66C12.01 16.66 12.54 16.44 12.93 16.05C13.32 15.66 13.54 15.13 13.54 14.58C13.54 14.03 13.32 13.5 12.93 13.11C12.54 12.71 12.01 12.5 11.45 12.5C10.9 12.5 10.37 12.71 9.98 13.11C9.59 13.5 9.37 14.03 9.37 14.58C9.37 15.13 9.59 15.66 9.98 16.05C10.37 16.44 10.9 16.66 11.45 16.66ZM4.16 16.66C4.71 16.66 5.24 16.44 5.63 16.05C6.03 15.66 6.24 15.13 6.24 14.58C6.24 14.03 6.03 13.5 5.63 13.11C5.24 12.71 4.71 12.5 4.16 12.5C3.61 12.5 3.08 12.71 2.69 13.11C2.3 13.5 2.08 14.03 2.08 14.58C2.08 15.13 2.3 15.66 2.69 16.05C3.08 16.44 3.61 16.66 4.16 16.66ZM17.74 2C18 1.99 18.25 1.88 18.43 1.69C18.61 1.51 18.71 1.26 18.71 1C18.71 0.74 18.61 0.49 18.43 0.3C18.25 0.11 18 0 17.74 0L16.54 0C15.6 0 14.79 0.65 14.59 1.56L13.28 7.44C13.08 8.36 12.27 9.01 11.33 9.01L3.5 9.01L2 3L11.73 3C11.99 2.99 12.23 2.88 12.41 2.69C12.59 2.5 12.69 2.26 12.69 2C12.69 1.74 12.59 1.49 12.41 1.31C12.23 1.12 11.99 1.01 11.73 1L2 1C1.69 1 1.39 1.07 1.12 1.2C0.85 1.33 0.61 1.53 0.42 1.77C0.23 2.01 0.1 2.29 0.04 2.58C-0.02 2.88 -0.02 3.19 0.06 3.49L1.56 9.5C1.67 9.93 1.92 10.31 2.27 10.59C2.62 10.86 3.05 11.01 3.5 11.01L11.33 11.01C12.24 11.01 13.12 10.7 13.83 10.13C14.54 9.56 15.04 8.77 15.24 7.88L16.54 2L17.74 2Z" fill="#FFFFFF" fill-opacity="1.000000" fill-rule="nonzero"/>
</svg>
